M48
; DRILL file {KiCad 7.0.1-3b83917a11~171~ubuntu22.04.1} date Wed 05 Apr 2023 03:14:05 PM PDT
; FORMAT={-:-/ absolute / metric / decimal}
; #@! TF.CreationDate,2023-04-05T15:14:05-07:00
; #@! TF.GenerationSoftware,Kicad,Pcbnew,7.0.1-3b83917a11~171~ubuntu22.04.1
; #@! TF.FileFunction,Plated,1,4,PTH
FMAT,2
METRIC
; #@! TA.AperFunction,Plated,PTH,ViaDrill
T1C0.300
; #@! TA.AperFunction,Plated,PTH,ViaDrill
T2C0.400
; #@! TA.AperFunction,Plated,PTH,ComponentDrill
T3C0.400
; #@! TA.AperFunction,Plated,PTH,ComponentDrill
T4C0.406
; #@! TA.AperFunction,Plated,PTH,ViaDrill
T5C0.600
; #@! TA.AperFunction,Plated,PTH,ComponentDrill
T6C0.600
; #@! TA.AperFunction,Plated,PTH,ComponentDrill
T7C0.650
; #@! TA.AperFunction,Plated,PTH,ViaDrill
T8C0.800
; #@! TA.AperFunction,Plated,PTH,ComponentDrill
T9C1.000
; #@! TA.AperFunction,Plated,PTH,ComponentDrill
T10C1.190
%
G90
G05
T1
X132.0Y-177.5
X134.25Y-171.5
X136.95Y-182.875
X137.825Y-183.2
X138.4Y-166.3
X138.9Y-183.5
X139.25Y-162.85
X140.7Y-163.3
X141.5Y-167.6
X144.675Y-203.525
X144.875Y-213.65
X147.525Y-216.475
X153.325Y-228.375
X154.75Y-189.24
X155.12Y-207.51
X155.86Y-204.24
X159.71Y-239.49
X161.575Y-185.16
X162.66Y-222.65
X162.75Y-225.75
X163.325Y-181.775
X165.1Y-154.1
X169.6Y-147.0
X172.27Y-235.74
X173.82Y-248.06
X174.43Y-236.34
X182.975Y-258.0
X183.25Y-255.896
X183.334Y-257.23
X185.8Y-142.1
X187.33Y-241.75
X188.95Y-260.75
X191.3Y-149.76
X191.95Y-136.0
X191.975Y-138.175
X192.1Y-147.4
X194.2Y-146.06
X194.658Y-145.358
X194.775Y-259.075
X195.325Y-142.1
X195.64Y-158.73
X196.7Y-134.0
X198.0Y-270.0
X198.0Y-271.2
X198.7Y-142.71
X198.8Y-146.0
X198.95Y-144.05
X199.3Y-258.875
X200.1Y-134.0
X200.25Y-154.5
X200.925Y-258.55
X201.5Y-159.063
X201.6Y-266.9
X201.85Y-270.55
X203.8Y-134.0
X203.867Y-156.642
X203.95Y-255.275
X204.36Y-146.06
X204.6Y-149.1
X204.673Y-137.173
X205.75Y-145.2
X206.0Y-134.3
X206.6Y-148.4
X206.65Y-151.35
X207.175Y-257.625
X207.6Y-147.8
X208.6Y-138.5
X209.1Y-139.361
X209.108Y-146.408
X209.2Y-147.6
X209.73Y-148.37
X209.875Y-145.6
X210.998Y-261.5
X211.3Y-146.1
X211.375Y-259.375
X211.9Y-151.6
X212.45Y-254.92
X213.924Y-158.0
X215.32Y-144.97
X216.17Y-146.32
X217.65Y-251.4
X220.25Y-153.75
X221.5Y-150.1
X223.29Y-145.45
X226.61Y-151.91
X226.8Y-247.47
X229.25Y-251.25
X234.75Y-158.75
X235.975Y-179.325
X237.23Y-161.06
X237.78Y-205.2
X238.45Y-216.75
X238.88Y-235.99
X239.275Y-185.1
X239.8Y-176.45
X241.36Y-162.61
X244.68Y-168.12
X250.1Y-232.1
X250.283Y-192.4
X252.29Y-212.9
X252.39Y-183.87
X252.5Y-160.6
X252.81Y-180.82
X253.0Y-194.2
X253.58Y-220.325
X253.8Y-157.6
X255.2Y-199.0
X255.3Y-193.0
X255.45Y-214.25
X257.17Y-201.19
X257.25Y-165.25
X259.9Y-163.2
X261.3Y-166.85
X262.45Y-166.2
X265.06Y-228.21
X268.61Y-208.65
T2
X128.7Y-191.7
X129.2Y-210.5
X129.525Y-184.3
X130.95Y-178.51
X131.15Y-221.375
X131.8Y-217.875
X131.925Y-181.15
X133.2Y-173.4
X133.761Y-181.2
X134.3Y-228.5
X134.931Y-217.3
X142.7Y-157.1
X142.9Y-203.9
X144.0Y-186.2
X144.0Y-244.4
X144.1Y-155.3
X146.0Y-218.5
X146.9Y-150.875
X147.275Y-161.075
X147.88Y-170.5
X148.15Y-169.1
X148.6Y-172.8
X149.25Y-171.8
X149.875Y-249.65
X149.925Y-151.1
X150.8Y-231.4
X150.975Y-253.025
X151.425Y-156.925
X152.225Y-150.0
X152.325Y-160.0
X152.866Y-248.109
X153.2Y-145.4
X154.075Y-151.25
X156.7Y-193.9
X157.1Y-160.0
X157.2Y-172.6
X157.4Y-257.5
X157.9Y-210.9
X158.7Y-172.4
X161.7Y-243.5
X161.8Y-162.8
X162.1Y-192.3
X162.3Y-178.1
X163.4Y-212.4
X164.8Y-158.9
X165.1Y-226.4
X165.5Y-177.0
X167.1Y-143.7
X167.1Y-146.6
X168.4Y-156.6
X168.5Y-153.2
X168.6Y-134.9
X168.8Y-159.3
X169.1Y-150.6
X169.2Y-155.6
X170.1Y-158.2
X170.225Y-173.075
X170.3Y-164.9
X170.7Y-162.8
X171.0Y-143.6
X173.0Y-228.75
X173.8Y-266.7
X174.9Y-251.7
X175.1Y-165.1
X177.25Y-135.575
X177.9Y-237.8
X178.4Y-153.4
X178.55Y-130.7
X181.2Y-268.1
X182.1Y-133.125
X182.175Y-264.798
X182.55Y-268.425
X183.0Y-144.1
X183.85Y-132.2
X184.275Y-270.425
X186.3Y-163.0
X186.3Y-255.5
X186.3Y-269.4
X186.6Y-128.5
X186.7Y-147.35
X186.7Y-249.125
X186.7Y-250.075
X188.3Y-159.1
X189.25Y-155.25
X189.5Y-139.3
X189.9Y-246.45
X190.6Y-254.9
X190.888Y-260.25
X191.05Y-244.0
X191.37Y-156.03
X191.8Y-239.4
X191.925Y-264.575
X192.0Y-271.2
X192.7Y-245.55
X193.0Y-150.5
X193.925Y-262.0
X194.2Y-240.75
X195.07Y-250.125
X195.07Y-251.075
X195.2Y-242.6
X197.25Y-154.75
X200.85Y-253.95
X203.05Y-259.575
X203.7Y-257.8
X203.85Y-245.7
X204.17Y-241.54
X204.7Y-157.5
X208.41Y-160.765
X209.1Y-237.65
X210.6Y-271.0
X211.34Y-266.42
X211.75Y-241.25
X212.887Y-244.591
X213.0Y-129.8
X213.1Y-236.6
X213.4Y-128.0
X213.5Y-145.6
X213.558Y-243.92
X213.6Y-144.6
X213.775Y-130.8
X213.8Y-133.2
X214.6Y-237.55
X215.12Y-130.77
X215.5Y-150.775
X215.625Y-129.35
X215.78Y-133.73
X215.883Y-132.399
X216.5Y-268.9
X217.975Y-268.275
X218.2Y-266.3
X218.5Y-254.0
X220.5Y-149.5
X221.4Y-147.0
X221.6Y-268.45
X221.7Y-132.55
X222.2Y-162.5
X223.0Y-149.75
X223.0Y-232.2
X224.0Y-132.4
X225.25Y-147.5
X225.25Y-148.6
X226.0Y-160.62
X226.3Y-234.9
X226.8Y-171.4
X227.5Y-149.8
X227.61Y-144.68
X228.3Y-226.7
X228.425Y-147.1
X228.6Y-265.8
X229.34Y-141.77
X229.5Y-229.0
X230.41Y-142.92
X231.9Y-247.6
X233.0Y-157.6
X234.2Y-152.275
X234.8Y-175.2
X235.175Y-151.475
X236.1Y-155.2
X236.55Y-190.25
X236.9Y-186.3
X237.45Y-220.0
X237.6Y-156.6
X237.9Y-207.5
X239.266Y-217.684
X239.575Y-245.55
X240.075Y-153.6
X240.35Y-207.0
X240.6Y-141.0
X241.1Y-188.3
X241.1Y-240.4
X242.6Y-204.7
X243.25Y-196.65
X243.581Y-156.632
X243.8Y-168.675
X244.7Y-256.2
X244.804Y-152.901
X246.0Y-249.2
X246.17Y-155.47
X247.45Y-168.2
X247.85Y-152.425
X248.66Y-232.15
X248.665Y-250.735
X249.15Y-146.925
X249.45Y-228.15
X249.5Y-150.95
X250.1Y-190.65
X250.25Y-166.05
X250.9Y-164.975
X251.7Y-225.2
X251.95Y-190.95
X252.125Y-151.1
X252.775Y-248.825
X254.2Y-181.5
X254.5Y-153.5
X254.862Y-173.862
X256.4Y-211.0
X257.3Y-198.8
X257.7Y-242.6
X264.0Y-181.375
X265.9Y-171.4
X266.0Y-174.6
X266.6Y-226.3
X266.875Y-181.375
X268.775Y-178.3
X270.275Y-215.325
X270.3Y-186.9
X271.1Y-208.0
T3
X199.42Y-242.37
X199.42Y-244.37
X199.42Y-245.37
X199.42Y-246.37
X199.42Y-247.37
X199.42Y-248.37
X200.58Y-242.69
X200.58Y-243.69
X200.58Y-244.69
X200.58Y-245.69
X200.58Y-246.69
X200.58Y-247.69
X200.58Y-248.69
T4
X199.42Y-243.37
T5
X153.7Y-161.1
X157.8Y-167.1
X166.8Y-228.95
X171.75Y-147.25
X173.0Y-147.5
X174.5Y-147.5
X175.5Y-147.5
X176.75Y-147.0
X177.0Y-137.5
X177.25Y-145.75
X178.25Y-137.0
X178.25Y-146.0
X179.5Y-137.5
X179.5Y-146.0
X195.1Y-136.7
X197.0Y-138.73
X200.13Y-137.0
X200.13Y-142.8
X203.8Y-138.9
X214.935Y-134.815
X215.25Y-137.25
X216.1Y-149.5
X220.7Y-137.2
X226.32Y-141.07
X227.15Y-143.54
X228.833Y-233.6
X233.5Y-137.0
X234.8Y-245.8
X236.319Y-220.059
X238.5Y-220.0
X238.5Y-232.5
X239.5Y-220.2
X241.0Y-229.5
X241.6Y-214.5
X242.0Y-232.0
X245.0Y-190.2
X246.0Y-231.0
X250.0Y-234.5
X250.2Y-179.7
X255.45Y-178.085
T6
X183.0Y-200.0
X217.0Y-200.0
T7
X142.135Y-169.599
X142.77Y-168.5
X143.405Y-167.4
X144.04Y-166.3
X144.675Y-165.2
X144.685Y-171.074
X145.32Y-169.975
X145.955Y-168.875
X146.59Y-167.775
X147.225Y-166.675
X197.375Y-262.375
X197.375Y-265.325
X198.645Y-262.375
X198.645Y-265.325
X199.915Y-262.375
X199.915Y-265.325
X201.185Y-262.375
X201.185Y-265.325
X202.455Y-262.375
X202.455Y-265.325
X252.785Y-166.576
X253.42Y-167.675
X254.055Y-168.775
X254.69Y-169.875
X255.325Y-170.975
X255.335Y-165.101
X255.97Y-166.2
X256.605Y-167.3
X257.24Y-168.4
X257.875Y-169.5
T8
X135.9Y-181.4
X141.1Y-197.0
X141.2Y-199.9
X141.6Y-192.95
X141.7Y-189.85
X148.85Y-192.75
X152.0Y-181.2
X176.092Y-171.292
X181.125Y-154.174
X185.3Y-151.275
X207.775Y-154.375
X217.3Y-132.6
X218.3Y-137.5
X219.0Y-135.85
X224.177Y-162.073
X229.83Y-157.08
X252.1Y-238.5
T9
X174.353Y-208.175
X225.153Y-207.925
T10
X218.365Y-240.047
X218.365Y-242.587
X218.365Y-245.127
X218.365Y-247.667
X227.565Y-192.655
X230.105Y-192.655
X237.65Y-200.0
X240.19Y-200.0
X242.73Y-200.0
X259.23Y-214.05
X259.23Y-216.59
X259.23Y-219.13
X259.23Y-221.67
T6
X198.17Y-242.91G85X198.17Y-243.41
G05
X198.17Y-247.65G85X198.17Y-248.15
G05
X201.83Y-242.91G85X201.83Y-243.41
G05
X201.83Y-247.65G85X201.83Y-248.15
G05
T0
M30
