G04 #@! TF.GenerationSoftware,KiCad,Pcbnew,7.0.1-3b83917a11~171~ubuntu22.04.1*
G04 #@! TF.CreationDate,2023-04-05T15:14:01-07:00*
G04 #@! TF.ProjectId,dancing_forest,64616e63-696e-4675-9f66-6f726573742e,rev?*
G04 #@! TF.SameCoordinates,Original*
G04 #@! TF.FileFunction,Profile,NP*
%FSLAX46Y46*%
G04 Gerber Fmt 4.6, Leading zero omitted, Abs format (unit mm)*
G04 Created by KiCad (PCBNEW 7.0.1-3b83917a11~171~ubuntu22.04.1) date 2023-04-05 15:14:01*
%MOMM*%
%LPD*%
G01*
G04 APERTURE LIST*
G04 #@! TA.AperFunction,Profile*
%ADD10C,0.200000*%
G04 #@! TD*
G04 APERTURE END LIST*
D10*
X204000000Y-273891813D02*
X204000000Y-263850000D01*
X231108864Y-181882644D02*
G75*
G03*
X168891136Y-181882644I-31108864J-18117356D01*
G01*
X187311703Y-195994555D02*
G75*
G03*
X185579546Y-193275633I-2999903J55D01*
G01*
X214420454Y-193275632D02*
X229784313Y-186111347D01*
X212688309Y-195994555D02*
X212688309Y-204005445D01*
X257895722Y-172578332D02*
X257295722Y-171539102D01*
X261327458Y-158588132D02*
G75*
G03*
X138672542Y-158588132I-61327458J-41411869D01*
G01*
X142704278Y-171539102D02*
X142104278Y-172578332D01*
X147304278Y-163571668D02*
X146704278Y-164610898D01*
X253295722Y-164610898D02*
X252695722Y-163571668D01*
X229784310Y-186111340D02*
G75*
G03*
X231108863Y-181882644I-1267910J2718940D01*
G01*
X185579546Y-193275632D02*
X170215687Y-186111347D01*
X168891176Y-181882667D02*
G75*
G03*
X170215687Y-186111346I2592224J-1509833D01*
G01*
X205200000Y-273817070D02*
G75*
G03*
X266527458Y-167594797I-5200000J73817070D01*
G01*
X265992186Y-166518195D02*
G75*
G03*
X261992186Y-159589993I-65992186J-33481805D01*
G01*
X134007813Y-166518195D02*
X142704278Y-171539102D01*
X196000000Y-273891813D02*
G75*
G03*
X204000000Y-273891813I4000000J73891944D01*
G01*
X187311691Y-195994555D02*
X187311691Y-204005445D01*
X214420449Y-193275621D02*
G75*
G03*
X212688309Y-195994555I1267951J-2718979D01*
G01*
X146704278Y-164610898D02*
X138007813Y-159589992D01*
X231108824Y-218117333D02*
G75*
G03*
X229784313Y-213888654I-2592224J1509833D01*
G01*
X133472542Y-167594797D02*
G75*
G03*
X194800000Y-273817070I66527458J-32405203D01*
G01*
X142104278Y-172578332D02*
X133472541Y-167594797D01*
X205200000Y-263850000D02*
X205200000Y-273817071D01*
X261992187Y-159589992D02*
X253295722Y-164610898D01*
X170215690Y-213888660D02*
G75*
G03*
X168891137Y-218117356I1267910J-2718940D01*
G01*
X266527459Y-167594797D02*
X257895722Y-172578332D01*
X185579551Y-206724379D02*
G75*
G03*
X187311691Y-204005445I-1267951J2718979D01*
G01*
X214420454Y-206724368D02*
X229784313Y-213888653D01*
X185579546Y-206724368D02*
X170215687Y-213888653D01*
X168891136Y-218117356D02*
G75*
G03*
X231108864Y-218117356I31108864J18117356D01*
G01*
X194800000Y-263850000D02*
X196000000Y-263850000D01*
X252695722Y-163571668D02*
X261327459Y-158588132D01*
X196000000Y-263850000D02*
X196000000Y-273891813D01*
X138007813Y-159589992D02*
G75*
G03*
X134007813Y-166518195I61992187J-40410008D01*
G01*
X257295722Y-171539102D02*
X265992187Y-166518195D01*
X194800000Y-273817071D02*
X194800000Y-263850000D01*
X212688297Y-204005445D02*
G75*
G03*
X214420454Y-206724367I2999903J-55D01*
G01*
X138672541Y-158588132D02*
X147304278Y-163571668D01*
X204000000Y-263850000D02*
X205200000Y-263850000D01*
M02*
