G04 #@! TF.GenerationSoftware,KiCad,Pcbnew,7.0.1-3b83917a11~171~ubuntu22.04.1*
G04 #@! TF.CreationDate,2023-04-05T15:14:01-07:00*
G04 #@! TF.ProjectId,dancing_forest,64616e63-696e-4675-9f66-6f726573742e,rev?*
G04 #@! TF.SameCoordinates,Original*
G04 #@! TF.FileFunction,Soldermask,Top*
G04 #@! TF.FilePolarity,Negative*
%FSLAX46Y46*%
G04 Gerber Fmt 4.6, Leading zero omitted, Abs format (unit mm)*
G04 Created by KiCad (PCBNEW 7.0.1-3b83917a11~171~ubuntu22.04.1) date 2023-04-05 15:14:01*
%MOMM*%
%LPD*%
G01*
G04 APERTURE LIST*
G04 Aperture macros list*
%AMRoundRect*
0 Rectangle with rounded corners*
0 $1 Rounding radius*
0 $2 $3 $4 $5 $6 $7 $8 $9 X,Y pos of 4 corners*
0 Add a 4 corners polygon primitive as box body*
4,1,4,$2,$3,$4,$5,$6,$7,$8,$9,$2,$3,0*
0 Add four circle primitives for the rounded corners*
1,1,$1+$1,$2,$3*
1,1,$1+$1,$4,$5*
1,1,$1+$1,$6,$7*
1,1,$1+$1,$8,$9*
0 Add four rect primitives between the rounded corners*
20,1,$1+$1,$2,$3,$4,$5,0*
20,1,$1+$1,$4,$5,$6,$7,0*
20,1,$1+$1,$6,$7,$8,$9,0*
20,1,$1+$1,$8,$9,$2,$3,0*%
%AMHorizOval*
0 Thick line with rounded ends*
0 $1 width*
0 $2 $3 position (X,Y) of the first rounded end (center of the circle)*
0 $4 $5 position (X,Y) of the second rounded end (center of the circle)*
0 Add line between two ends*
20,1,$1,$2,$3,$4,$5,0*
0 Add two circle primitives to create the rounded ends*
1,1,$1,$2,$3*
1,1,$1,$4,$5*%
%AMRotRect*
0 Rectangle, with rotation*
0 The origin of the aperture is its center*
0 $1 length*
0 $2 width*
0 $3 Rotation angle, in degrees counterclockwise*
0 Add horizontal line*
21,1,$1,$2,0,0,$3*%
G04 Aperture macros list end*
%ADD10C,1.300000*%
%ADD11RoundRect,0.200000X0.200000X0.275000X-0.200000X0.275000X-0.200000X-0.275000X0.200000X-0.275000X0*%
%ADD12RotRect,1.000000X1.000000X210.000000*%
%ADD13HorizOval,1.000000X0.000000X0.000000X0.000000X0.000000X0*%
%ADD14RotRect,1.500000X0.900000X172.500000*%
%ADD15RotRect,0.550000X1.000000X105.000000*%
%ADD16RotRect,0.550000X1.200000X15.000000*%
%ADD17RotRect,0.700000X1.200000X15.000000*%
%ADD18RotRect,0.450000X1.200000X15.000000*%
%ADD19RotRect,1.500000X0.900000X45.000000*%
%ADD20RotRect,0.550000X1.000000X75.000000*%
%ADD21RotRect,0.550000X1.200000X345.000000*%
%ADD22RotRect,0.700000X1.200000X345.000000*%
%ADD23RotRect,0.450000X1.200000X345.000000*%
%ADD24RotRect,0.550000X1.000000X255.000000*%
%ADD25RotRect,0.550000X1.200000X165.000000*%
%ADD26RotRect,0.700000X1.200000X165.000000*%
%ADD27RotRect,0.450000X1.200000X165.000000*%
%ADD28RotRect,1.500000X1.000000X281.250000*%
%ADD29RotRect,1.500000X1.000000X168.750000*%
%ADD30R,0.900000X1.500000*%
%ADD31RotRect,1.500000X0.900000X217.500000*%
%ADD32C,3.900000*%
%ADD33RotRect,1.500000X1.000000X11.250000*%
%ADD34RotRect,1.500000X0.900000X300.000000*%
%ADD35RotRect,1.500000X0.900000X67.500000*%
%ADD36RoundRect,0.250000X0.250000X0.475000X-0.250000X0.475000X-0.250000X-0.475000X0.250000X-0.475000X0*%
%ADD37RotRect,1.500000X0.900000X127.500000*%
%ADD38RotRect,1.500000X0.900000X157.500000*%
%ADD39RotRect,1.500000X1.000000X236.250000*%
%ADD40RotRect,1.500000X0.900000X315.000000*%
%ADD41RoundRect,0.062500X0.127500X0.062500X-0.127500X0.062500X-0.127500X-0.062500X0.127500X-0.062500X0*%
%ADD42RoundRect,0.125000X0.125000X0.125000X-0.125000X0.125000X-0.125000X-0.125000X0.125000X-0.125000X0*%
%ADD43RotRect,1.500000X0.900000X322.500000*%
%ADD44RotRect,1.500000X0.900000X232.500000*%
%ADD45R,1.000000X1.000000*%
%ADD46O,1.000000X1.000000*%
%ADD47RotRect,0.550000X1.000000X315.000000*%
%ADD48RotRect,0.550000X1.200000X225.000000*%
%ADD49RotRect,0.700000X1.200000X225.000000*%
%ADD50RotRect,0.450000X1.200000X225.000000*%
%ADD51RotRect,1.500000X0.900000X345.000000*%
%ADD52RotRect,0.550000X1.000000X15.000000*%
%ADD53RotRect,0.550000X1.200000X285.000000*%
%ADD54RotRect,0.700000X1.200000X285.000000*%
%ADD55RotRect,0.450000X1.200000X285.000000*%
%ADD56RotRect,0.550000X1.000000X225.000000*%
%ADD57RotRect,0.550000X1.200000X135.000000*%
%ADD58RotRect,0.700000X1.200000X135.000000*%
%ADD59RotRect,0.450000X1.200000X135.000000*%
%ADD60RotRect,1.500000X1.000000X303.750000*%
%ADD61RotRect,1.500000X1.000000X258.750000*%
%ADD62RotRect,1.500000X1.000000X33.750000*%
%ADD63RotRect,1.500000X0.900000X52.500000*%
%ADD64C,0.500000*%
%ADD65RotRect,1.000000X1.000000X330.000000*%
%ADD66HorizOval,1.000000X0.000000X0.000000X0.000000X0.000000X0*%
%ADD67RoundRect,0.062500X-0.117877X0.079168X0.009623X-0.141668X0.117877X-0.079168X-0.009623X0.141668X0*%
%ADD68RoundRect,0.125000X-0.170753X0.045753X-0.045753X-0.170753X0.170753X-0.045753X0.045753X0.170753X0*%
%ADD69RotRect,1.500000X1.000000X56.250000*%
%ADD70RoundRect,0.250000X0.286362X-0.454006X0.536362X-0.020994X-0.286362X0.454006X-0.536362X0.020994X0*%
%ADD71RotRect,1.500000X1.000000X213.750000*%
%ADD72RotRect,1.500000X1.000000X326.250000*%
%ADD73R,1.500000X0.900000*%
%ADD74RotRect,1.500000X0.900000X120.000000*%
%ADD75RotRect,1.500000X0.900000X142.500000*%
%ADD76RotRect,1.500000X0.900000X7.500000*%
%ADD77RotRect,1.500000X0.900000X30.000000*%
%ADD78RotRect,1.500000X0.900000X210.000000*%
%ADD79RotRect,1.500000X0.900000X97.500000*%
%ADD80RoundRect,0.062500X-0.009623X-0.141668X0.117877X0.079168X0.009623X0.141668X-0.117877X-0.079168X0*%
%ADD81RoundRect,0.125000X0.045753X-0.170753X0.170753X0.045753X-0.045753X0.170753X-0.170753X-0.045753X0*%
%ADD82RotRect,1.500000X0.900000X352.500000*%
%ADD83RotRect,1.500000X0.900000X135.000000*%
%ADD84RotRect,1.500000X0.900000X105.000000*%
%ADD85RoundRect,0.250000X-0.536362X-0.020994X-0.286362X-0.454006X0.536362X0.020994X0.286362X0.454006X0*%
%ADD86RotRect,1.500000X0.900000X150.000000*%
%ADD87RotRect,1.500000X0.900000X262.500000*%
%ADD88RotRect,1.500000X0.900000X37.500000*%
%ADD89RotRect,1.500000X0.900000X75.000000*%
%ADD90RotRect,1.500000X0.900000X60.000000*%
%ADD91RotRect,0.550000X1.000000X345.000000*%
%ADD92RotRect,0.550000X1.200000X255.000000*%
%ADD93RotRect,0.700000X1.200000X255.000000*%
%ADD94RotRect,0.450000X1.200000X255.000000*%
%ADD95RotRect,1.500000X0.900000X292.500000*%
%ADD96RotRect,1.500000X0.900000X195.000000*%
%ADD97C,0.700000*%
%ADD98O,1.000000X1.500000*%
%ADD99RotRect,1.500000X0.900000X240.000000*%
%ADD100RotRect,1.500000X1.000000X146.250000*%
%ADD101RotRect,1.500000X0.900000X330.000000*%
%ADD102RotRect,1.500000X0.900000X165.000000*%
%ADD103RotRect,1.500000X0.900000X82.500000*%
%ADD104RotRect,1.500000X0.900000X285.000000*%
%ADD105RotRect,0.550000X1.000000X45.000000*%
%ADD106RotRect,0.550000X1.200000X315.000000*%
%ADD107RotRect,0.700000X1.200000X315.000000*%
%ADD108RotRect,0.450000X1.200000X315.000000*%
%ADD109RotRect,1.500000X0.900000X187.500000*%
%ADD110RotRect,1.500000X1.000000X78.750000*%
%ADD111RotRect,0.550000X1.000000X135.000000*%
%ADD112RotRect,0.550000X1.200000X45.000000*%
%ADD113RotRect,0.700000X1.200000X45.000000*%
%ADD114RotRect,0.450000X1.200000X45.000000*%
%ADD115RotRect,1.500000X1.000000X123.750000*%
%ADD116RotRect,0.550000X1.000000X195.000000*%
%ADD117RotRect,0.550000X1.200000X105.000000*%
%ADD118RotRect,0.700000X1.200000X105.000000*%
%ADD119RotRect,0.450000X1.200000X105.000000*%
%ADD120RotRect,1.500000X1.000000X101.250000*%
%ADD121RotRect,0.550000X1.000000X285.000000*%
%ADD122RotRect,0.550000X1.200000X195.000000*%
%ADD123RotRect,0.700000X1.200000X195.000000*%
%ADD124RotRect,0.450000X1.200000X195.000000*%
%ADD125RotRect,1.500000X0.900000X337.500000*%
%ADD126RotRect,0.550000X1.000000X165.000000*%
%ADD127RotRect,0.550000X1.200000X75.000000*%
%ADD128RotRect,0.700000X1.200000X75.000000*%
%ADD129RotRect,0.450000X1.200000X75.000000*%
%ADD130RotRect,1.500000X0.900000X307.500000*%
%ADD131RotRect,1.500000X1.000000X348.750000*%
%ADD132RotRect,1.500000X0.900000X22.500000*%
%ADD133RotRect,1.500000X0.900000X112.500000*%
%ADD134RotRect,1.500000X0.900000X202.500000*%
%ADD135RotRect,1.500000X0.900000X225.000000*%
%ADD136RotRect,1.500000X0.900000X247.500000*%
%ADD137RotRect,1.500000X1.000000X191.250000*%
%ADD138RotRect,1.500000X0.900000X255.000000*%
%ADD139RotRect,1.500000X0.900000X15.000000*%
%ADD140RotRect,1.500000X0.900000X277.500000*%
%ADD141RoundRect,0.250000X-0.620000X-0.845000X0.620000X-0.845000X0.620000X0.845000X-0.620000X0.845000X0*%
%ADD142O,1.740000X2.190000*%
%ADD143RoundRect,0.250000X0.845000X-0.620000X0.845000X0.620000X-0.845000X0.620000X-0.845000X-0.620000X0*%
%ADD144O,2.190000X1.740000*%
%ADD145R,1.700000X1.700000*%
%ADD146RoundRect,0.250000X0.620000X0.845000X-0.620000X0.845000X-0.620000X-0.845000X0.620000X-0.845000X0*%
G04 APERTURE END LIST*
D10*
X183000000Y-200000000D03*
X217000000Y-200000000D03*
D11*
X193880000Y-249965000D03*
X192230000Y-249965000D03*
X193880000Y-251555000D03*
X192230000Y-251555000D03*
D12*
X257875000Y-169500000D03*
D13*
X257240000Y-168400148D03*
X256605000Y-167300295D03*
X255970000Y-166200443D03*
X255335000Y-165100591D03*
D14*
X211350505Y-132554533D03*
X211781241Y-129282765D03*
X206923161Y-128643187D03*
X206492425Y-131914955D03*
D15*
X216973486Y-269914207D03*
D16*
X217210231Y-269928417D03*
D17*
X218296897Y-269637246D03*
D18*
X219286971Y-269371956D03*
D16*
X220252897Y-269113137D03*
D15*
X220450819Y-268982458D03*
D19*
X236345288Y-239810111D03*
X238678741Y-242143564D03*
X242143564Y-238678741D03*
X239810111Y-236345288D03*
D20*
X179742366Y-269034222D03*
D21*
X179940288Y-269164901D03*
D22*
X181026954Y-269456072D03*
D23*
X182017028Y-269721362D03*
D21*
X182982954Y-269980181D03*
D20*
X183219699Y-269965971D03*
D24*
X220257634Y-130965778D03*
D25*
X220059712Y-130835099D03*
D26*
X218973046Y-130543928D03*
D27*
X217982972Y-130278638D03*
D25*
X217017046Y-130019819D03*
D24*
X216780301Y-130034029D03*
D28*
X158696519Y-210713771D03*
X161835032Y-210089482D03*
X160879089Y-205283635D03*
X157740576Y-205907924D03*
D29*
X205907924Y-157740576D03*
X205283635Y-160879089D03*
X210089482Y-161835032D03*
X210713771Y-158696519D03*
D30*
X146150000Y-197550000D03*
X142850000Y-197550000D03*
X142850000Y-202450000D03*
X146150000Y-202450000D03*
D31*
X160334872Y-144282834D03*
X158325959Y-141664767D03*
X154438528Y-144647698D03*
X156447441Y-147265765D03*
D32*
X176000000Y-241569000D03*
D33*
X210713771Y-241303481D03*
X210089482Y-238164968D03*
X205283635Y-239120911D03*
X205907924Y-242259424D03*
D34*
X152139532Y-224803238D03*
X149281648Y-226453238D03*
X151731648Y-230696762D03*
X154589532Y-229046762D03*
D35*
X262209591Y-228419917D03*
X265258394Y-229682773D03*
X267133543Y-225155763D03*
X264084740Y-223892907D03*
D36*
X200752620Y-271050000D03*
X198852620Y-271050000D03*
D37*
X255717166Y-160334872D03*
X258335233Y-158325959D03*
X255352302Y-154438528D03*
X252734235Y-156447441D03*
D38*
X228419917Y-137790409D03*
X229682773Y-134741606D03*
X225155763Y-132866457D03*
X223892907Y-135915260D03*
D39*
X163218248Y-178369808D03*
X165878950Y-180147633D03*
X168601244Y-176073432D03*
X165940542Y-174295607D03*
D40*
X160189889Y-236345288D03*
X157856436Y-238678741D03*
X161321259Y-242143564D03*
X163654712Y-239810111D03*
D41*
X201740000Y-269175000D03*
D42*
X201600000Y-269300000D03*
X200800000Y-269300000D03*
X200000000Y-269300000D03*
X199200000Y-269300000D03*
X198400000Y-269300000D03*
X198400000Y-268500000D03*
X198400000Y-267700000D03*
X199200000Y-267700000D03*
X200000000Y-267700000D03*
X200800000Y-267700000D03*
X201600000Y-267700000D03*
X201600000Y-268500000D03*
D43*
X156447441Y-252734235D03*
X154438528Y-255352302D03*
X158325959Y-258335233D03*
X160334872Y-255717166D03*
D44*
X147265765Y-156447441D03*
X144647698Y-154438528D03*
X141664767Y-158325959D03*
X144282834Y-160334872D03*
D45*
X197375000Y-262375000D03*
D46*
X198645000Y-262375000D03*
X199915000Y-262375000D03*
X201185000Y-262375000D03*
X202455000Y-262375000D03*
D30*
X253850000Y-202450000D03*
X257150000Y-202450000D03*
X257150000Y-197550000D03*
X253850000Y-197550000D03*
D47*
X150343426Y-147939263D03*
D48*
X150131294Y-148045329D03*
D49*
X149335799Y-148840824D03*
D50*
X148611014Y-149565608D03*
D48*
X147903908Y-150272715D03*
D47*
X147797842Y-150484847D03*
D32*
X248000000Y-200000000D03*
D51*
X183696076Y-251380999D03*
X182841973Y-254568554D03*
X187575010Y-255836767D03*
X188429113Y-252649212D03*
D52*
X130085793Y-216973486D03*
D53*
X130071583Y-217210231D03*
D54*
X130362754Y-218296897D03*
D55*
X130628044Y-219286971D03*
D53*
X130886863Y-220252897D03*
D52*
X131017542Y-220450819D03*
D56*
X252060737Y-150343426D03*
D57*
X251954671Y-150131294D03*
D58*
X251159176Y-149335799D03*
D59*
X250434392Y-148611014D03*
D57*
X249727285Y-147903908D03*
D56*
X249515153Y-147797842D03*
D60*
X165940542Y-225704393D03*
X168601244Y-223926568D03*
X165878950Y-219852367D03*
X163218248Y-221630192D03*
D61*
X157740576Y-194092076D03*
X160879089Y-194716365D03*
X161835032Y-189910518D03*
X158696519Y-189286229D03*
D62*
X225704393Y-234059458D03*
X223926568Y-231398756D03*
X219852367Y-234121050D03*
X221630192Y-236781752D03*
D63*
X252734235Y-243552559D03*
X255352302Y-245561472D03*
X258335233Y-241674041D03*
X255717166Y-239665128D03*
D64*
X256850000Y-170633013D03*
X256350000Y-169766987D03*
X255850000Y-168900962D03*
X255350000Y-168034936D03*
X254850000Y-167168911D03*
X254350000Y-166302886D03*
X253850000Y-165436860D03*
D65*
X147225000Y-166675000D03*
D66*
X146590000Y-167774852D03*
X145955000Y-168874705D03*
X145320000Y-169974557D03*
X144685000Y-171074409D03*
D65*
X144675000Y-165200000D03*
D66*
X144040000Y-166299852D03*
X143405000Y-167399705D03*
X142770000Y-168499557D03*
X142135000Y-169599409D03*
D32*
X176000000Y-158431000D03*
D67*
X259052371Y-163905616D03*
D68*
X259230624Y-163964359D03*
X259630624Y-164657180D03*
X260030624Y-165350000D03*
X260430624Y-166042820D03*
X260830624Y-166735641D03*
X260137804Y-167135641D03*
X259444984Y-167535641D03*
X259044984Y-166842820D03*
X258644984Y-166150000D03*
X258244984Y-165457180D03*
X257844984Y-164764359D03*
X258537804Y-164364359D03*
D69*
X236781752Y-221630192D03*
X234121050Y-219852367D03*
X231398756Y-223926568D03*
X234059458Y-225704393D03*
D70*
X138030000Y-165275344D03*
X138980000Y-163629896D03*
D71*
X174295607Y-165940542D03*
X176073432Y-168601244D03*
X180147633Y-165878950D03*
X178369808Y-163218248D03*
D72*
X178369808Y-236781752D03*
X180147633Y-234121050D03*
X176073432Y-231398756D03*
X174295607Y-234059458D03*
D73*
X197550000Y-253850000D03*
X197550000Y-257150000D03*
X202450000Y-257150000D03*
X202450000Y-253850000D03*
D74*
X247860468Y-175196762D03*
X250718352Y-173546762D03*
X248268352Y-169303238D03*
X245410468Y-170953238D03*
D75*
X243552559Y-147265765D03*
X245561472Y-144647698D03*
X241674041Y-141664767D03*
X239665128Y-144282834D03*
D76*
X206492425Y-268085045D03*
X206923161Y-271356813D03*
X211781241Y-270717235D03*
X211350505Y-267445467D03*
D77*
X224803238Y-247860468D03*
X226453238Y-250718352D03*
X230696762Y-248268352D03*
X229046762Y-245410468D03*
D78*
X175196762Y-152139532D03*
X173546762Y-149281648D03*
X169303238Y-151731648D03*
X170953238Y-154589532D03*
D79*
X268085045Y-193507575D03*
X271356813Y-193076839D03*
X270717235Y-188218759D03*
X267445467Y-188649495D03*
D80*
X139207629Y-166919384D03*
D81*
X139169376Y-166735641D03*
X139569376Y-166042820D03*
X139969376Y-165350000D03*
X140369376Y-164657180D03*
X140769376Y-163964359D03*
X141462196Y-164364359D03*
X142155016Y-164764359D03*
X141755016Y-165457180D03*
X141355016Y-166150000D03*
X140955016Y-166842820D03*
X140555016Y-167535641D03*
X139862196Y-167135641D03*
D82*
X188649495Y-267445467D03*
X188218759Y-270717235D03*
X193076839Y-271356813D03*
X193507575Y-268085045D03*
D83*
X239810111Y-163654712D03*
X242143564Y-161321259D03*
X238678741Y-157856436D03*
X236345288Y-160189889D03*
D84*
X252649212Y-188429113D03*
X255836767Y-187575010D03*
X254568554Y-182841973D03*
X251380999Y-183696076D03*
D85*
X261022380Y-163692276D03*
X261972380Y-165337724D03*
D86*
X229046762Y-154589532D03*
X230696762Y-151731648D03*
X226453238Y-149281648D03*
X224803238Y-152139532D03*
D87*
X132554533Y-188649495D03*
X129282765Y-188218759D03*
X128643187Y-193076839D03*
X131914955Y-193507575D03*
D88*
X239665128Y-255717166D03*
X241674041Y-258335233D03*
X245561472Y-255352302D03*
X243552559Y-252734235D03*
D89*
X251380999Y-216303924D03*
X254568554Y-217158027D03*
X255836767Y-212424990D03*
X252649212Y-211570887D03*
D90*
X245410468Y-229046762D03*
X248268352Y-230696762D03*
X250718352Y-226453238D03*
X247860468Y-224803238D03*
D12*
X255325000Y-170975000D03*
D13*
X254690000Y-169875148D03*
X254055000Y-168775295D03*
X253420000Y-167675443D03*
X252785000Y-166575591D03*
D91*
X130965778Y-179742366D03*
D92*
X130835099Y-179940288D03*
D93*
X130543928Y-181026954D03*
D94*
X130278638Y-182017028D03*
D92*
X130019819Y-182982954D03*
D91*
X130034029Y-183219699D03*
D95*
X135915260Y-223892907D03*
X132866457Y-225155763D03*
X134741606Y-229682773D03*
X137790409Y-228419917D03*
D73*
X202450000Y-146150000D03*
X202450000Y-142850000D03*
X197550000Y-142850000D03*
X197550000Y-146150000D03*
D96*
X188429113Y-147350788D03*
X187575010Y-144163233D03*
X182841973Y-145431446D03*
X183696076Y-148619001D03*
D97*
X199420000Y-248370000D03*
X199420000Y-247370000D03*
X199420000Y-246370000D03*
X199420000Y-245370000D03*
X199420000Y-244370000D03*
X199420000Y-243370000D03*
X199420000Y-242370000D03*
X200580000Y-242690000D03*
X200580000Y-243690000D03*
X200580000Y-244690000D03*
X200580000Y-245690000D03*
X200580000Y-246690000D03*
X200580000Y-247690000D03*
X200580000Y-248690000D03*
D98*
X198170000Y-243160000D03*
X198170000Y-247900000D03*
X201830000Y-243160000D03*
X201830000Y-247900000D03*
D99*
X154589532Y-170953238D03*
X151731648Y-169303238D03*
X149281648Y-173546762D03*
X152139532Y-175196762D03*
D100*
X221630192Y-163218248D03*
X219852367Y-165878950D03*
X223926568Y-168601244D03*
X225704393Y-165940542D03*
D101*
X170953238Y-245410468D03*
X169303238Y-248268352D03*
X173546762Y-250718352D03*
X175196762Y-247860468D03*
D64*
X146050000Y-165566987D03*
X145550000Y-166433013D03*
X145050000Y-167299038D03*
X144550000Y-168165064D03*
X144050000Y-169031089D03*
X143550000Y-169897114D03*
X143050000Y-170763140D03*
D102*
X216303924Y-148619001D03*
X217158027Y-145431446D03*
X212424990Y-144163233D03*
X211570887Y-147350788D03*
D103*
X267445467Y-211350505D03*
X270717235Y-211781241D03*
X271356813Y-206923161D03*
X268085045Y-206492425D03*
D104*
X147350788Y-211570887D03*
X144163233Y-212424990D03*
X145431446Y-217158027D03*
X148619001Y-216303924D03*
D105*
X147939263Y-249656574D03*
D106*
X148045329Y-249868706D03*
D107*
X148840824Y-250664201D03*
D108*
X149565608Y-251388986D03*
D106*
X150272715Y-252096092D03*
D105*
X150484847Y-252202158D03*
D109*
X193507575Y-131914955D03*
X193076839Y-128643187D03*
X188218759Y-129282765D03*
X188649495Y-132554533D03*
D110*
X242259424Y-205907924D03*
X239120911Y-205283635D03*
X238164968Y-210089482D03*
X241303481Y-210713771D03*
D111*
X249656574Y-252060737D03*
D112*
X249868706Y-251954671D03*
D113*
X250664201Y-251159176D03*
D114*
X251388986Y-250434392D03*
D112*
X252096092Y-249727285D03*
D111*
X252202158Y-249515153D03*
D115*
X234059458Y-174295607D03*
X231398756Y-176073432D03*
X234121050Y-180147633D03*
X236781752Y-178369808D03*
D64*
X197100000Y-263800000D03*
X198100000Y-263800000D03*
X199100000Y-263800000D03*
X200100000Y-263800000D03*
X201100000Y-263800000D03*
X202100000Y-263800000D03*
X203100000Y-263800000D03*
D116*
X269914207Y-183026514D03*
D117*
X269928417Y-182789769D03*
D118*
X269637246Y-181703103D03*
D119*
X269371956Y-180713029D03*
D117*
X269113137Y-179747103D03*
D116*
X268982458Y-179549181D03*
D120*
X241303481Y-189286229D03*
X238164968Y-189910518D03*
X239120911Y-194716365D03*
X242259424Y-194092076D03*
D121*
X183026514Y-130085793D03*
D122*
X182789769Y-130071583D03*
D123*
X181703103Y-130362754D03*
D124*
X180713029Y-130628044D03*
D122*
X179747103Y-130886863D03*
D121*
X179549181Y-131017542D03*
D125*
X171580083Y-262209591D03*
X170317227Y-265258394D03*
X174844237Y-267133543D03*
X176107093Y-264084740D03*
D126*
X269034222Y-220257634D03*
D127*
X269164901Y-220059712D03*
D128*
X269456072Y-218973046D03*
D129*
X269721362Y-217982972D03*
D127*
X269980181Y-217017046D03*
D126*
X269965971Y-216780301D03*
D130*
X144282834Y-239665128D03*
X141664767Y-241674041D03*
X144647698Y-245561472D03*
X147265765Y-243552559D03*
D131*
X194092076Y-242259424D03*
X194716365Y-239120911D03*
X189910518Y-238164968D03*
X189286229Y-241303481D03*
D132*
X223892907Y-264084740D03*
X225155763Y-267133543D03*
X229682773Y-265258394D03*
X228419917Y-262209591D03*
D133*
X264084740Y-176107093D03*
X267133543Y-174844237D03*
X265258394Y-170317227D03*
X262209591Y-171580083D03*
D45*
X197375000Y-265325000D03*
D46*
X198645000Y-265325000D03*
X199915000Y-265325000D03*
X201185000Y-265325000D03*
X202455000Y-265325000D03*
D134*
X176107093Y-135915260D03*
X174844237Y-132866457D03*
X170317227Y-134741606D03*
X171580083Y-137790409D03*
D135*
X163654712Y-160189889D03*
X161321259Y-157856436D03*
X157856436Y-161321259D03*
X160189889Y-163654712D03*
D136*
X137790409Y-171580083D03*
X134741606Y-170317227D03*
X132866457Y-174844237D03*
X135915260Y-176107093D03*
D137*
X189286229Y-158696519D03*
X189910518Y-161835032D03*
X194716365Y-160879089D03*
X194092076Y-157740576D03*
D138*
X148619001Y-183696076D03*
X145431446Y-182841973D03*
X144163233Y-187575010D03*
X147350788Y-188429113D03*
D139*
X211570887Y-252649212D03*
X212424990Y-255836767D03*
X217158027Y-254568554D03*
X216303924Y-251380999D03*
D140*
X131914955Y-206492425D03*
X128643187Y-206923161D03*
X129282765Y-211781241D03*
X132554533Y-211350505D03*
D141*
X237650000Y-200000000D03*
D142*
X240190000Y-200000000D03*
X242730000Y-200000000D03*
D143*
X218365000Y-247667380D03*
D144*
X218365000Y-245127380D03*
X218365000Y-242587380D03*
X218365000Y-240047380D03*
D145*
X225152620Y-207925000D03*
D146*
X230105000Y-192655000D03*
D142*
X227565000Y-192655000D03*
D145*
X174352620Y-208175000D03*
D143*
X259230000Y-221670000D03*
D144*
X259230000Y-219130000D03*
X259230000Y-216590000D03*
X259230000Y-214050000D03*
M02*
