G04 #@! TF.GenerationSoftware,KiCad,Pcbnew,7.0.1-3b83917a11~171~ubuntu22.04.1*
G04 #@! TF.CreationDate,2023-04-05T15:14:01-07:00*
G04 #@! TF.ProjectId,dancing_forest,64616e63-696e-4675-9f66-6f726573742e,rev?*
G04 #@! TF.SameCoordinates,Original*
G04 #@! TF.FileFunction,Copper,L4,Bot*
G04 #@! TF.FilePolarity,Positive*
%FSLAX46Y46*%
G04 Gerber Fmt 4.6, Leading zero omitted, Abs format (unit mm)*
G04 Created by KiCad (PCBNEW 7.0.1-3b83917a11~171~ubuntu22.04.1) date 2023-04-05 15:14:01*
%MOMM*%
%LPD*%
G01*
G04 APERTURE LIST*
G04 Aperture macros list*
%AMRoundRect*
0 Rectangle with rounded corners*
0 $1 Rounding radius*
0 $2 $3 $4 $5 $6 $7 $8 $9 X,Y pos of 4 corners*
0 Add a 4 corners polygon primitive as box body*
4,1,4,$2,$3,$4,$5,$6,$7,$8,$9,$2,$3,0*
0 Add four circle primitives for the rounded corners*
1,1,$1+$1,$2,$3*
1,1,$1+$1,$4,$5*
1,1,$1+$1,$6,$7*
1,1,$1+$1,$8,$9*
0 Add four rect primitives between the rounded corners*
20,1,$1+$1,$2,$3,$4,$5,0*
20,1,$1+$1,$4,$5,$6,$7,0*
20,1,$1+$1,$6,$7,$8,$9,0*
20,1,$1+$1,$8,$9,$2,$3,0*%
%AMHorizOval*
0 Thick line with rounded ends*
0 $1 width*
0 $2 $3 position (X,Y) of the first rounded end (center of the circle)*
0 $4 $5 position (X,Y) of the second rounded end (center of the circle)*
0 Add line between two ends*
20,1,$1,$2,$3,$4,$5,0*
0 Add two circle primitives to create the rounded ends*
1,1,$1,$2,$3*
1,1,$1,$4,$5*%
%AMRotRect*
0 Rectangle, with rotation*
0 The origin of the aperture is its center*
0 $1 length*
0 $2 width*
0 $3 Rotation angle, in degrees counterclockwise*
0 Add horizontal line*
21,1,$1,$2,0,0,$3*%
%AMFreePoly0*
4,1,19,0.500000,-0.750000,0.000000,-0.750000,0.000000,-0.744911,-0.071157,-0.744911,-0.207708,-0.704816,-0.327430,-0.627875,-0.420627,-0.520320,-0.479746,-0.390866,-0.500000,-0.250000,-0.500000,0.250000,-0.479746,0.390866,-0.420627,0.520320,-0.327430,0.627875,-0.207708,0.704816,-0.071157,0.744911,0.000000,0.744911,0.000000,0.750000,0.500000,0.750000,0.500000,-0.750000,0.500000,-0.750000,
$1*%
%AMFreePoly1*
4,1,19,0.000000,0.744911,0.071157,0.744911,0.207708,0.704816,0.327430,0.627875,0.420627,0.520320,0.479746,0.390866,0.500000,0.250000,0.500000,-0.250000,0.479746,-0.390866,0.420627,-0.520320,0.327430,-0.627875,0.207708,-0.704816,0.071157,-0.744911,0.000000,-0.744911,0.000000,-0.750000,-0.500000,-0.750000,-0.500000,0.750000,0.000000,0.750000,0.000000,0.744911,0.000000,0.744911,
$1*%
%AMFreePoly2*
4,1,6,0.600000,-0.600000,0.000000,-0.600000,-0.600000,0.000000,-0.600000,0.600000,0.600000,0.600000,0.600000,-0.600000,0.600000,-0.600000,$1*%
%AMFreePoly3*
4,1,19,0.550000,-0.750000,0.000000,-0.750000,0.000000,-0.744911,-0.071157,-0.744911,-0.207708,-0.704816,-0.327430,-0.627875,-0.420627,-0.520320,-0.479746,-0.390866,-0.500000,-0.250000,-0.500000,0.250000,-0.479746,0.390866,-0.420627,0.520320,-0.327430,0.627875,-0.207708,0.704816,-0.071157,0.744911,0.000000,0.744911,0.000000,0.750000,0.550000,0.750000,0.550000,-0.750000,0.550000,-0.750000,
$1*%
%AMFreePoly4*
4,1,19,0.000000,0.744911,0.071157,0.744911,0.207708,0.704816,0.327430,0.627875,0.420627,0.520320,0.479746,0.390866,0.500000,0.250000,0.500000,-0.250000,0.479746,-0.390866,0.420627,-0.520320,0.327430,-0.627875,0.207708,-0.704816,0.071157,-0.744911,0.000000,-0.744911,0.000000,-0.750000,-0.550000,-0.750000,-0.550000,0.750000,0.000000,0.750000,0.000000,0.744911,0.000000,0.744911,
$1*%
G04 Aperture macros list end*
G04 #@! TA.AperFunction,ComponentPad*
%ADD10C,1.300000*%
G04 #@! TD*
G04 #@! TA.AperFunction,SMDPad,CuDef*
%ADD11FreePoly0,0.000000*%
G04 #@! TD*
G04 #@! TA.AperFunction,SMDPad,CuDef*
%ADD12FreePoly1,0.000000*%
G04 #@! TD*
G04 #@! TA.AperFunction,ComponentPad*
%ADD13RotRect,1.000000X1.000000X210.000000*%
G04 #@! TD*
G04 #@! TA.AperFunction,ComponentPad*
%ADD14HorizOval,1.000000X0.000000X0.000000X0.000000X0.000000X0*%
G04 #@! TD*
G04 #@! TA.AperFunction,ComponentPad*
%ADD15R,1.000000X1.000000*%
G04 #@! TD*
G04 #@! TA.AperFunction,ComponentPad*
%ADD16O,1.000000X1.000000*%
G04 #@! TD*
G04 #@! TA.AperFunction,ComponentPad*
%ADD17RotRect,1.000000X1.000000X330.000000*%
G04 #@! TD*
G04 #@! TA.AperFunction,ComponentPad*
%ADD18HorizOval,1.000000X0.000000X0.000000X0.000000X0.000000X0*%
G04 #@! TD*
G04 #@! TA.AperFunction,ComponentPad*
%ADD19C,0.700000*%
G04 #@! TD*
G04 #@! TA.AperFunction,ComponentPad*
%ADD20O,1.000000X1.500000*%
G04 #@! TD*
G04 #@! TA.AperFunction,SMDPad,CuDef*
%ADD21FreePoly0,90.000000*%
G04 #@! TD*
G04 #@! TA.AperFunction,SMDPad,CuDef*
%ADD22FreePoly1,90.000000*%
G04 #@! TD*
G04 #@! TA.AperFunction,SMDPad,CuDef*
%ADD23RotRect,1.500000X0.900000X45.000000*%
G04 #@! TD*
G04 #@! TA.AperFunction,SMDPad,CuDef*
%ADD24RoundRect,0.250000X-0.262500X-0.450000X0.262500X-0.450000X0.262500X0.450000X-0.262500X0.450000X0*%
G04 #@! TD*
G04 #@! TA.AperFunction,SMDPad,CuDef*
%ADD25RoundRect,0.218750X0.218750X0.256250X-0.218750X0.256250X-0.218750X-0.256250X0.218750X-0.256250X0*%
G04 #@! TD*
G04 #@! TA.AperFunction,SMDPad,CuDef*
%ADD26RoundRect,0.250000X-0.450000X0.262500X-0.450000X-0.262500X0.450000X-0.262500X0.450000X0.262500X0*%
G04 #@! TD*
G04 #@! TA.AperFunction,SMDPad,CuDef*
%ADD27RoundRect,0.225000X0.250000X-0.225000X0.250000X0.225000X-0.250000X0.225000X-0.250000X-0.225000X0*%
G04 #@! TD*
G04 #@! TA.AperFunction,SMDPad,CuDef*
%ADD28RoundRect,0.200000X0.275000X-0.200000X0.275000X0.200000X-0.275000X0.200000X-0.275000X-0.200000X0*%
G04 #@! TD*
G04 #@! TA.AperFunction,SMDPad,CuDef*
%ADD29RoundRect,0.150000X-0.466266X0.442404X-0.616266X0.182596X0.466266X-0.442404X0.616266X-0.182596X0*%
G04 #@! TD*
G04 #@! TA.AperFunction,SMDPad,CuDef*
%ADD30RoundRect,0.250000X-0.387917X0.628109X-0.737917X0.021891X0.387917X-0.628109X0.737917X-0.021891X0*%
G04 #@! TD*
G04 #@! TA.AperFunction,SMDPad,CuDef*
%ADD31RotRect,1.500000X0.900000X315.000000*%
G04 #@! TD*
G04 #@! TA.AperFunction,SMDPad,CuDef*
%ADD32RotRect,1.500000X0.900000X285.000000*%
G04 #@! TD*
G04 #@! TA.AperFunction,ComponentPad*
%ADD33RoundRect,0.250000X-0.620000X-0.845000X0.620000X-0.845000X0.620000X0.845000X-0.620000X0.845000X0*%
G04 #@! TD*
G04 #@! TA.AperFunction,ComponentPad*
%ADD34O,1.740000X2.190000*%
G04 #@! TD*
G04 #@! TA.AperFunction,SMDPad,CuDef*
%ADD35RotRect,1.500000X0.900000X105.000000*%
G04 #@! TD*
G04 #@! TA.AperFunction,SMDPad,CuDef*
%ADD36RoundRect,0.250000X1.500000X0.550000X-1.500000X0.550000X-1.500000X-0.550000X1.500000X-0.550000X0*%
G04 #@! TD*
G04 #@! TA.AperFunction,SMDPad,CuDef*
%ADD37RoundRect,0.200000X-0.200000X-0.275000X0.200000X-0.275000X0.200000X0.275000X-0.200000X0.275000X0*%
G04 #@! TD*
G04 #@! TA.AperFunction,SMDPad,CuDef*
%ADD38RoundRect,0.250000X0.262500X0.450000X-0.262500X0.450000X-0.262500X-0.450000X0.262500X-0.450000X0*%
G04 #@! TD*
G04 #@! TA.AperFunction,SMDPad,CuDef*
%ADD39RoundRect,0.225000X0.225000X0.250000X-0.225000X0.250000X-0.225000X-0.250000X0.225000X-0.250000X0*%
G04 #@! TD*
G04 #@! TA.AperFunction,SMDPad,CuDef*
%ADD40RotRect,1.500000X0.900000X135.000000*%
G04 #@! TD*
G04 #@! TA.AperFunction,SMDPad,CuDef*
%ADD41RoundRect,0.250000X0.450000X-0.262500X0.450000X0.262500X-0.450000X0.262500X-0.450000X-0.262500X0*%
G04 #@! TD*
G04 #@! TA.AperFunction,SMDPad,CuDef*
%ADD42RotRect,1.500000X0.900000X75.000000*%
G04 #@! TD*
G04 #@! TA.AperFunction,SMDPad,CuDef*
%ADD43RoundRect,0.250000X0.475000X-0.250000X0.475000X0.250000X-0.475000X0.250000X-0.475000X-0.250000X0*%
G04 #@! TD*
G04 #@! TA.AperFunction,SMDPad,CuDef*
%ADD44R,0.650000X0.400000*%
G04 #@! TD*
G04 #@! TA.AperFunction,SMDPad,CuDef*
%ADD45R,0.400000X1.200000*%
G04 #@! TD*
G04 #@! TA.AperFunction,SMDPad,CuDef*
%ADD46RoundRect,0.250000X0.250000X0.475000X-0.250000X0.475000X-0.250000X-0.475000X0.250000X-0.475000X0*%
G04 #@! TD*
G04 #@! TA.AperFunction,SMDPad,CuDef*
%ADD47RoundRect,0.225000X-0.250000X0.225000X-0.250000X-0.225000X0.250000X-0.225000X0.250000X0.225000X0*%
G04 #@! TD*
G04 #@! TA.AperFunction,SMDPad,CuDef*
%ADD48RoundRect,0.200000X0.200000X0.275000X-0.200000X0.275000X-0.200000X-0.275000X0.200000X-0.275000X0*%
G04 #@! TD*
G04 #@! TA.AperFunction,ComponentPad*
%ADD49RoundRect,0.250000X0.845000X-0.620000X0.845000X0.620000X-0.845000X0.620000X-0.845000X-0.620000X0*%
G04 #@! TD*
G04 #@! TA.AperFunction,ComponentPad*
%ADD50O,2.190000X1.740000*%
G04 #@! TD*
G04 #@! TA.AperFunction,SMDPad,CuDef*
%ADD51RoundRect,0.087500X0.087500X-0.225000X0.087500X0.225000X-0.087500X0.225000X-0.087500X-0.225000X0*%
G04 #@! TD*
G04 #@! TA.AperFunction,SMDPad,CuDef*
%ADD52RoundRect,0.087500X0.225000X-0.087500X0.225000X0.087500X-0.225000X0.087500X-0.225000X-0.087500X0*%
G04 #@! TD*
G04 #@! TA.AperFunction,SMDPad,CuDef*
%ADD53R,0.800000X0.400000*%
G04 #@! TD*
G04 #@! TA.AperFunction,SMDPad,CuDef*
%ADD54R,0.400000X0.800000*%
G04 #@! TD*
G04 #@! TA.AperFunction,SMDPad,CuDef*
%ADD55R,1.200000X1.200000*%
G04 #@! TD*
G04 #@! TA.AperFunction,SMDPad,CuDef*
%ADD56FreePoly2,180.000000*%
G04 #@! TD*
G04 #@! TA.AperFunction,SMDPad,CuDef*
%ADD57R,0.800000X0.800000*%
G04 #@! TD*
G04 #@! TA.AperFunction,SMDPad,CuDef*
%ADD58RotRect,1.500000X0.900000X255.000000*%
G04 #@! TD*
G04 #@! TA.AperFunction,ComponentPad*
%ADD59R,1.700000X1.700000*%
G04 #@! TD*
G04 #@! TA.AperFunction,SMDPad,CuDef*
%ADD60R,1.560000X0.650000*%
G04 #@! TD*
G04 #@! TA.AperFunction,SMDPad,CuDef*
%ADD61RoundRect,0.250000X-0.475000X0.250000X-0.475000X-0.250000X0.475000X-0.250000X0.475000X0.250000X0*%
G04 #@! TD*
G04 #@! TA.AperFunction,SMDPad,CuDef*
%ADD62RoundRect,0.250000X-0.250000X-0.475000X0.250000X-0.475000X0.250000X0.475000X-0.250000X0.475000X0*%
G04 #@! TD*
G04 #@! TA.AperFunction,SMDPad,CuDef*
%ADD63RoundRect,0.150000X0.150000X-0.587500X0.150000X0.587500X-0.150000X0.587500X-0.150000X-0.587500X0*%
G04 #@! TD*
G04 #@! TA.AperFunction,SMDPad,CuDef*
%ADD64RotRect,1.500000X0.900000X225.000000*%
G04 #@! TD*
G04 #@! TA.AperFunction,ComponentPad*
%ADD65RoundRect,0.250000X0.620000X0.845000X-0.620000X0.845000X-0.620000X-0.845000X0.620000X-0.845000X0*%
G04 #@! TD*
G04 #@! TA.AperFunction,SMDPad,CuDef*
%ADD66RotRect,1.500000X0.900000X345.000000*%
G04 #@! TD*
G04 #@! TA.AperFunction,SMDPad,CuDef*
%ADD67RotRect,1.500000X0.900000X165.000000*%
G04 #@! TD*
G04 #@! TA.AperFunction,SMDPad,CuDef*
%ADD68RoundRect,0.243750X0.243750X0.456250X-0.243750X0.456250X-0.243750X-0.456250X0.243750X-0.456250X0*%
G04 #@! TD*
G04 #@! TA.AperFunction,SMDPad,CuDef*
%ADD69RoundRect,0.225000X-0.225000X-0.250000X0.225000X-0.250000X0.225000X0.250000X-0.225000X0.250000X0*%
G04 #@! TD*
G04 #@! TA.AperFunction,SMDPad,CuDef*
%ADD70RoundRect,0.250000X-0.350000X0.850000X-0.350000X-0.850000X0.350000X-0.850000X0.350000X0.850000X0*%
G04 #@! TD*
G04 #@! TA.AperFunction,SMDPad,CuDef*
%ADD71RoundRect,0.250000X-1.125000X1.275000X-1.125000X-1.275000X1.125000X-1.275000X1.125000X1.275000X0*%
G04 #@! TD*
G04 #@! TA.AperFunction,SMDPad,CuDef*
%ADD72RoundRect,0.249997X-2.650003X2.950003X-2.650003X-2.950003X2.650003X-2.950003X2.650003X2.950003X0*%
G04 #@! TD*
G04 #@! TA.AperFunction,SMDPad,CuDef*
%ADD73RotRect,1.500000X0.900000X195.000000*%
G04 #@! TD*
G04 #@! TA.AperFunction,SMDPad,CuDef*
%ADD74FreePoly3,270.000000*%
G04 #@! TD*
G04 #@! TA.AperFunction,SMDPad,CuDef*
%ADD75R,1.500000X1.000000*%
G04 #@! TD*
G04 #@! TA.AperFunction,SMDPad,CuDef*
%ADD76FreePoly4,270.000000*%
G04 #@! TD*
G04 #@! TA.AperFunction,SMDPad,CuDef*
%ADD77RotRect,1.500000X0.900000X15.000000*%
G04 #@! TD*
G04 #@! TA.AperFunction,SMDPad,CuDef*
%ADD78RoundRect,0.150000X-0.150000X0.825000X-0.150000X-0.825000X0.150000X-0.825000X0.150000X0.825000X0*%
G04 #@! TD*
G04 #@! TA.AperFunction,SMDPad,CuDef*
%ADD79R,3.000000X2.290000*%
G04 #@! TD*
G04 #@! TA.AperFunction,ViaPad*
%ADD80C,0.700000*%
G04 #@! TD*
G04 #@! TA.AperFunction,ViaPad*
%ADD81C,0.900000*%
G04 #@! TD*
G04 #@! TA.AperFunction,ViaPad*
%ADD82C,1.200000*%
G04 #@! TD*
G04 #@! TA.AperFunction,ViaPad*
%ADD83C,0.600000*%
G04 #@! TD*
G04 #@! TA.AperFunction,Conductor*
%ADD84C,2.000000*%
G04 #@! TD*
G04 #@! TA.AperFunction,Conductor*
%ADD85C,0.300000*%
G04 #@! TD*
G04 #@! TA.AperFunction,Conductor*
%ADD86C,0.200000*%
G04 #@! TD*
G04 #@! TA.AperFunction,Conductor*
%ADD87C,0.250000*%
G04 #@! TD*
G04 #@! TA.AperFunction,Conductor*
%ADD88C,1.000000*%
G04 #@! TD*
G04 #@! TA.AperFunction,Conductor*
%ADD89C,0.500000*%
G04 #@! TD*
G04 #@! TA.AperFunction,Conductor*
%ADD90C,0.400000*%
G04 #@! TD*
G04 APERTURE END LIST*
D10*
X183000000Y-200000000D03*
X217000000Y-200000000D03*
D11*
X204675000Y-249125000D03*
D12*
X205975000Y-249125000D03*
D11*
X204675000Y-245875000D03*
D12*
X205975000Y-245875000D03*
D13*
X257875000Y-169500000D03*
D14*
X257240000Y-168400148D03*
X256605000Y-167300295D03*
X255970000Y-166200443D03*
X255335000Y-165100591D03*
D15*
X197375000Y-262375000D03*
D16*
X198645000Y-262375000D03*
X199915000Y-262375000D03*
X201185000Y-262375000D03*
X202455000Y-262375000D03*
D17*
X147225000Y-166675000D03*
D18*
X146590000Y-167774852D03*
X145955000Y-168874705D03*
X145320000Y-169974557D03*
X144685000Y-171074409D03*
D17*
X144675000Y-165200000D03*
D18*
X144040000Y-166299852D03*
X143405000Y-167399705D03*
X142770000Y-168499557D03*
X142135000Y-169599409D03*
D13*
X255325000Y-170975000D03*
D14*
X254690000Y-169875148D03*
X254055000Y-168775295D03*
X253420000Y-167675443D03*
X252785000Y-166575591D03*
D19*
X199420000Y-248370000D03*
X199420000Y-247370000D03*
X199420000Y-246370000D03*
X199420000Y-245370000D03*
X199420000Y-244370000D03*
X199420000Y-243370000D03*
X199420000Y-242370000D03*
X200580000Y-242690000D03*
X200580000Y-243690000D03*
X200580000Y-244690000D03*
X200580000Y-245690000D03*
X200580000Y-246690000D03*
X200580000Y-247690000D03*
X200580000Y-248690000D03*
D20*
X198170000Y-243160000D03*
X198170000Y-247900000D03*
X201830000Y-243160000D03*
X201830000Y-247900000D03*
D15*
X197375000Y-265325000D03*
D16*
X198645000Y-265325000D03*
X199915000Y-265325000D03*
X201185000Y-265325000D03*
X202455000Y-265325000D03*
D21*
X173125000Y-146002620D03*
D22*
X173125000Y-144702620D03*
D23*
X228425693Y-231890516D03*
X226092240Y-229557063D03*
X229557063Y-226092240D03*
X231890516Y-228425693D03*
D24*
X186444880Y-150425000D03*
X188269880Y-150425000D03*
D25*
X244080120Y-246435000D03*
X242505120Y-246435000D03*
D26*
X175525000Y-144414880D03*
X175525000Y-146239880D03*
D27*
X254595000Y-194217620D03*
X254595000Y-192667620D03*
D28*
X204215000Y-243957620D03*
X204215000Y-242307620D03*
D29*
X233372949Y-138348342D03*
X232872949Y-139214367D03*
X232372949Y-140080393D03*
X231872949Y-140946418D03*
D30*
X237378798Y-139160009D03*
X234578798Y-144009751D03*
D31*
X168109484Y-228425693D03*
X170442937Y-226092240D03*
X173907760Y-229557063D03*
X171574307Y-231890516D03*
D32*
X158169157Y-208672114D03*
X161356712Y-207818011D03*
X162624925Y-212551048D03*
X159437370Y-213405151D03*
D33*
X237650000Y-200000000D03*
D34*
X240190000Y-200000000D03*
X242730000Y-200000000D03*
D35*
X241830843Y-191327886D03*
X238643288Y-192181989D03*
X237375075Y-187448952D03*
X240562630Y-186594849D03*
D36*
X147202620Y-198425000D03*
X141802620Y-198425000D03*
D37*
X192442380Y-246425000D03*
X194092380Y-246425000D03*
D38*
X244485120Y-230175000D03*
X242660120Y-230175000D03*
D39*
X167370000Y-154325000D03*
X165820000Y-154325000D03*
D11*
X223397380Y-152675000D03*
D12*
X224697380Y-152675000D03*
D40*
X231890516Y-171574307D03*
X229557063Y-173907760D03*
X226092240Y-170442937D03*
X228425693Y-168109484D03*
D41*
X247125000Y-224585120D03*
X247125000Y-222760120D03*
D42*
X240562630Y-213405151D03*
X237375075Y-212551048D03*
X238643288Y-207818011D03*
X241830843Y-208672114D03*
D43*
X249895000Y-237802620D03*
X249895000Y-235902620D03*
D44*
X251107380Y-193575000D03*
X251107380Y-192925000D03*
X251107380Y-192275000D03*
X253007380Y-192275000D03*
X253007380Y-192925000D03*
X253007380Y-193575000D03*
D45*
X192882500Y-258842620D03*
X192247500Y-258842620D03*
X191612500Y-258842620D03*
X190977500Y-258842620D03*
X190342500Y-258842620D03*
X189707500Y-258842620D03*
X189072500Y-258842620D03*
X188437500Y-258842620D03*
X187802500Y-258842620D03*
X187167500Y-258842620D03*
X187167500Y-253642620D03*
X187802500Y-253642620D03*
X188437500Y-253642620D03*
X189072500Y-253642620D03*
X189707500Y-253642620D03*
X190342500Y-253642620D03*
X190977500Y-253642620D03*
X191612500Y-253642620D03*
X192247500Y-253642620D03*
X192882500Y-253642620D03*
D46*
X220652620Y-132355000D03*
X218752620Y-132355000D03*
D47*
X171495000Y-160960000D03*
X171495000Y-162510000D03*
D48*
X214442380Y-149555000D03*
X212792380Y-149555000D03*
D49*
X218365000Y-247667380D03*
D50*
X218365000Y-245127380D03*
X218365000Y-242587380D03*
X218365000Y-240047380D03*
D51*
X223695000Y-149005120D03*
X223195000Y-149005120D03*
X222695000Y-149005120D03*
X222195000Y-149005120D03*
D52*
X222032500Y-148342620D03*
X222032500Y-147842620D03*
X222032500Y-147342620D03*
D51*
X222195000Y-146680120D03*
X222695000Y-146680120D03*
X223195000Y-146680120D03*
X223695000Y-146680120D03*
D52*
X223857500Y-147342620D03*
X223857500Y-147842620D03*
X223857500Y-148342620D03*
D53*
X207110000Y-134010000D03*
X207110000Y-134860000D03*
X207110000Y-135710000D03*
X207110000Y-136560000D03*
X207110000Y-137410000D03*
X207110000Y-138260000D03*
X207110000Y-139110000D03*
X207110000Y-139960000D03*
X207110000Y-140810000D03*
X207110000Y-141660000D03*
X207110000Y-142510000D03*
X207110000Y-143360000D03*
X207110000Y-144210000D03*
X207110000Y-145060000D03*
X207110000Y-145910000D03*
D54*
X206060000Y-146960000D03*
X205210000Y-146960000D03*
X204360000Y-146960000D03*
X203510000Y-146960000D03*
X202660000Y-146960000D03*
X201810000Y-146960000D03*
X200960000Y-146960000D03*
X200110000Y-146960000D03*
X199260000Y-146960000D03*
X198410000Y-146960000D03*
X197560000Y-146960000D03*
X196710000Y-146960000D03*
X195860000Y-146960000D03*
X195010000Y-146960000D03*
X194160000Y-146960000D03*
D53*
X193110000Y-145910000D03*
X193110000Y-145060000D03*
X193110000Y-144210000D03*
X193110000Y-143360000D03*
X193110000Y-142510000D03*
X193110000Y-141660000D03*
X193110000Y-140810000D03*
X193110000Y-139960000D03*
X193110000Y-139110000D03*
X193110000Y-138260000D03*
X193110000Y-137410000D03*
X193110000Y-136560000D03*
X193110000Y-135710000D03*
X193110000Y-134860000D03*
X193110000Y-134010000D03*
D54*
X194160000Y-132960000D03*
X195010000Y-132960000D03*
X195860000Y-132960000D03*
X196710000Y-132960000D03*
X197560000Y-132960000D03*
X198410000Y-132960000D03*
X199260000Y-132960000D03*
X200110000Y-132960000D03*
X200960000Y-132960000D03*
X201810000Y-132960000D03*
X202660000Y-132960000D03*
X203510000Y-132960000D03*
X204360000Y-132960000D03*
X205210000Y-132960000D03*
X206060000Y-132960000D03*
D55*
X201760000Y-141610000D03*
X201760000Y-139960000D03*
D56*
X201760000Y-138310000D03*
D55*
X200110000Y-141610000D03*
X200110000Y-139960000D03*
X200110000Y-138310000D03*
X198460000Y-141610000D03*
X198460000Y-139960000D03*
X198460000Y-138310000D03*
D57*
X207110000Y-132960000D03*
X207110000Y-146960000D03*
X193110000Y-146960000D03*
X193110000Y-132960000D03*
D44*
X167592620Y-155925000D03*
X167592620Y-156575000D03*
X167592620Y-157225000D03*
X165692620Y-157225000D03*
X165692620Y-156575000D03*
X165692620Y-155925000D03*
D46*
X191802620Y-261805000D03*
X189902620Y-261805000D03*
D58*
X159437370Y-186594849D03*
X162624925Y-187448952D03*
X161356712Y-192181989D03*
X158169157Y-191327886D03*
D59*
X225152620Y-207925000D03*
D37*
X223092380Y-150635000D03*
X224742380Y-150635000D03*
D47*
X245695000Y-151040000D03*
X245695000Y-152590000D03*
D60*
X238447380Y-223025000D03*
X238447380Y-222075000D03*
X238447380Y-221125000D03*
X241147380Y-221125000D03*
X241147380Y-222075000D03*
X241147380Y-223025000D03*
D61*
X219865000Y-146747380D03*
X219865000Y-148647380D03*
D44*
X169492620Y-162075000D03*
X169492620Y-162725000D03*
X169492620Y-163375000D03*
X167592620Y-163375000D03*
X167592620Y-162725000D03*
X167592620Y-162075000D03*
D46*
X213802620Y-137325000D03*
X211902620Y-137325000D03*
X213802620Y-134815000D03*
X211902620Y-134815000D03*
D62*
X224347380Y-144385000D03*
X226247380Y-144385000D03*
D27*
X249605000Y-193330000D03*
X249605000Y-191780000D03*
D62*
X224347380Y-142125000D03*
X226247380Y-142125000D03*
D63*
X179225000Y-144220120D03*
X177325000Y-144220120D03*
X178275000Y-142345120D03*
D24*
X247060120Y-246325000D03*
X248885120Y-246325000D03*
D37*
X212792380Y-147045000D03*
X214442380Y-147045000D03*
D43*
X236215000Y-226702620D03*
X236215000Y-224802620D03*
D24*
X247060120Y-243775000D03*
X248885120Y-243775000D03*
D36*
X147202620Y-191275000D03*
X141802620Y-191275000D03*
D64*
X171574307Y-168109484D03*
X173907760Y-170442937D03*
X170442937Y-173907760D03*
X168109484Y-171574307D03*
D24*
X182164880Y-141325000D03*
X183989880Y-141325000D03*
D65*
X230105000Y-192655000D03*
D34*
X227565000Y-192655000D03*
D44*
X168157380Y-146475000D03*
X168157380Y-145825000D03*
X168157380Y-145175000D03*
X170057380Y-145175000D03*
X170057380Y-145825000D03*
X170057380Y-146475000D03*
D66*
X186594849Y-240562630D03*
X187448952Y-237375075D03*
X192181989Y-238643288D03*
X191327886Y-241830843D03*
D43*
X240455000Y-234752620D03*
X240455000Y-232852620D03*
D67*
X213405151Y-159437370D03*
X212551048Y-162624925D03*
X207818011Y-161356712D03*
X208672114Y-158169157D03*
D68*
X244180120Y-243820000D03*
X242305120Y-243820000D03*
D69*
X165867620Y-158935000D03*
X167417620Y-158935000D03*
X167782380Y-165025000D03*
X169332380Y-165025000D03*
D11*
X239947380Y-237875000D03*
D12*
X241247380Y-237875000D03*
D69*
X168332380Y-143435000D03*
X169882380Y-143435000D03*
D38*
X247935120Y-227275000D03*
X246110120Y-227275000D03*
D41*
X236425000Y-230835120D03*
X236425000Y-229010120D03*
D70*
X217415000Y-135997380D03*
D71*
X221220000Y-140622380D03*
X218170000Y-140622380D03*
D72*
X219695000Y-142297380D03*
D71*
X221220000Y-143972380D03*
X218170000Y-143972380D03*
D70*
X221975000Y-135997380D03*
D73*
X191327886Y-158169157D03*
X192181989Y-161356712D03*
X187448952Y-162624925D03*
X186594849Y-159437370D03*
D59*
X174352620Y-208175000D03*
D60*
X241152620Y-224925000D03*
X241152620Y-225875000D03*
X241152620Y-226825000D03*
X238452620Y-226825000D03*
X238452620Y-225875000D03*
X238452620Y-224925000D03*
D69*
X242282380Y-155705000D03*
X243832380Y-155705000D03*
D63*
X179175000Y-140220120D03*
X177275000Y-140220120D03*
X178225000Y-138345120D03*
D49*
X259230000Y-221670000D03*
D50*
X259230000Y-219130000D03*
X259230000Y-216590000D03*
X259230000Y-214050000D03*
D74*
X229025000Y-135357380D03*
D75*
X229025000Y-136657380D03*
D76*
X229025000Y-137957380D03*
D77*
X208672114Y-241830843D03*
X207818011Y-238643288D03*
X212551048Y-237375075D03*
X213405151Y-240562630D03*
D78*
X243220000Y-232932380D03*
X244490000Y-232932380D03*
X245760000Y-232932380D03*
X247030000Y-232932380D03*
X247030000Y-237882380D03*
X245760000Y-237882380D03*
X244490000Y-237882380D03*
X243220000Y-237882380D03*
D79*
X245125000Y-235407380D03*
D38*
X188269880Y-148475000D03*
X186444880Y-148475000D03*
D44*
X243892620Y-152575000D03*
X243892620Y-153225000D03*
X243892620Y-153875000D03*
X241992620Y-153875000D03*
X241992620Y-153225000D03*
X241992620Y-152575000D03*
D21*
X235625000Y-222502620D03*
D22*
X235625000Y-221202620D03*
D80*
X191050000Y-244000000D03*
X189900000Y-246450000D03*
X200850000Y-253950000D03*
X194200000Y-240750000D03*
X209100000Y-237650000D03*
X214600000Y-237550000D03*
X223000000Y-232200000D03*
X212886568Y-244591262D03*
X213558320Y-243919510D03*
X186700000Y-250075000D03*
X186700000Y-249125000D03*
X203850000Y-245700000D03*
X195069942Y-250125000D03*
X195069942Y-251075000D03*
X240350000Y-207000000D03*
X236550000Y-190250000D03*
X251950000Y-190950000D03*
X243250000Y-196650000D03*
X250100000Y-190650000D03*
D81*
X166800000Y-228950000D03*
X241600000Y-214500000D03*
X245000000Y-190200000D03*
D82*
X207775000Y-154375000D03*
D80*
X218200000Y-266300000D03*
X240075000Y-153600000D03*
D81*
X234800000Y-245800000D03*
D82*
X152000000Y-181200000D03*
X181125000Y-154174500D03*
D80*
X149875000Y-249650000D03*
X133760590Y-181200000D03*
X131800000Y-217875000D03*
X152225000Y-150000000D03*
X164800000Y-158900000D03*
D82*
X224176728Y-162073271D03*
D80*
X221700000Y-132550000D03*
D82*
X252100000Y-238500000D03*
D80*
X217975000Y-268275000D03*
D81*
X216100000Y-149500000D03*
D80*
X182175000Y-264797932D03*
X248665088Y-250734912D03*
D82*
X135900000Y-181400000D03*
D80*
X182100000Y-133125000D03*
D82*
X176091566Y-171291566D03*
X148850000Y-192750000D03*
D80*
X131925000Y-181150000D03*
X181200000Y-268100000D03*
D81*
X157800000Y-167100000D03*
D80*
X177250000Y-135575000D03*
X152865939Y-248109061D03*
X266875000Y-181375000D03*
D83*
X253000000Y-194200000D03*
D81*
X255450000Y-178084688D03*
D80*
X264000000Y-181375000D03*
X161800000Y-162800000D03*
D81*
X220700000Y-137200000D03*
D80*
X249500000Y-150950000D03*
D82*
X185300000Y-151275000D03*
D81*
X250200000Y-179700000D03*
D82*
X229830000Y-157080000D03*
D81*
X153700000Y-161100000D03*
D80*
X246000000Y-249200000D03*
X134930563Y-217300000D03*
X154075000Y-151250000D03*
D81*
X228832835Y-233600000D03*
D80*
X247850000Y-152425000D03*
X169200000Y-155600000D03*
X167100000Y-143700000D03*
D81*
X195100000Y-136700000D03*
D83*
X257250000Y-165250000D03*
X201850000Y-270550000D03*
D80*
X170100000Y-158200000D03*
D83*
X138400000Y-166300000D03*
X259900000Y-163200000D03*
X141500000Y-167600000D03*
X201600000Y-266900000D03*
X203800000Y-134000000D03*
D82*
X218300000Y-137500000D03*
D80*
X167100000Y-146600000D03*
D83*
X250282878Y-192400000D03*
D80*
X243581450Y-156631852D03*
D82*
X141600000Y-192950000D03*
D83*
X139250000Y-162850000D03*
D81*
X171750000Y-147250000D03*
D80*
X192700000Y-245550000D03*
D81*
X239500000Y-220200000D03*
D82*
X141100000Y-197000000D03*
D83*
X255300000Y-193000000D03*
D81*
X173000000Y-147500000D03*
X200130000Y-137000000D03*
X233500000Y-137000000D03*
D80*
X186700000Y-147350000D03*
D81*
X238500000Y-232500000D03*
D80*
X170700000Y-162800000D03*
X171000000Y-143600000D03*
X168400000Y-156600000D03*
D81*
X214935000Y-134815000D03*
X242000000Y-232000000D03*
X238500000Y-220000000D03*
D82*
X141700000Y-189850000D03*
D83*
X200100000Y-134000000D03*
X192100000Y-147400000D03*
D80*
X204170000Y-241540000D03*
D83*
X191950000Y-136000000D03*
D80*
X249450000Y-228150000D03*
D83*
X262450000Y-166200000D03*
D80*
X168800000Y-159300000D03*
D81*
X246000000Y-231000000D03*
X226320000Y-141070000D03*
X227150000Y-143540000D03*
X215250000Y-137250000D03*
X176750000Y-147000000D03*
D83*
X206000000Y-134300000D03*
D80*
X223000000Y-149750000D03*
D83*
X196700000Y-134000000D03*
D81*
X203800000Y-138900000D03*
D80*
X244803652Y-152901367D03*
D83*
X188950000Y-260750000D03*
X165100000Y-154100000D03*
D82*
X219000000Y-135850000D03*
D83*
X207600000Y-147800000D03*
D82*
X217300000Y-132600000D03*
D81*
X200130000Y-142800000D03*
X175500000Y-147500000D03*
D80*
X220500000Y-149500000D03*
D82*
X141200000Y-199900000D03*
D81*
X250000000Y-234500000D03*
X174500000Y-147500000D03*
D80*
X221400000Y-147000000D03*
X190600000Y-254900000D03*
X170300000Y-164900000D03*
D81*
X236318828Y-220058828D03*
X197000000Y-138729500D03*
X241000000Y-229500000D03*
D83*
X198000000Y-271200000D03*
X183250000Y-255896127D03*
X200925000Y-258550000D03*
X209100000Y-139360500D03*
X138900000Y-183500000D03*
X198000000Y-270000000D03*
X194775000Y-259075000D03*
D80*
X229340000Y-141770000D03*
X191370000Y-156030000D03*
X228425000Y-147100000D03*
X234200000Y-152275000D03*
X225250000Y-148600000D03*
D83*
X206650000Y-151350000D03*
X206600000Y-148400000D03*
X136950000Y-182875000D03*
D80*
X215500000Y-150774647D03*
X227610000Y-144680000D03*
X250250000Y-166050000D03*
X148150000Y-169100000D03*
D83*
X182975000Y-258000000D03*
D80*
X158700000Y-172400000D03*
X250900000Y-164975000D03*
X225250000Y-147500000D03*
D83*
X209200000Y-147600000D03*
D80*
X213500000Y-145600000D03*
X235175000Y-151475000D03*
D83*
X137825000Y-183200000D03*
X199300000Y-258875000D03*
D80*
X147880378Y-170500000D03*
X230410000Y-142920000D03*
D83*
X183334242Y-257230195D03*
D80*
X157200000Y-172600000D03*
X189250000Y-155250000D03*
X233000000Y-157600000D03*
X236100000Y-155200000D03*
D83*
X216170000Y-146320000D03*
X261300000Y-166850000D03*
X215320000Y-144970000D03*
D80*
X193000000Y-150500000D03*
X149250000Y-171800000D03*
D83*
X140700000Y-163300000D03*
D80*
X168500000Y-153200000D03*
D83*
X191300000Y-149760000D03*
D80*
X128700000Y-191700000D03*
X144000000Y-186200000D03*
X228300000Y-226700000D03*
X213600000Y-144600000D03*
X174900000Y-251700000D03*
X266600000Y-226300000D03*
X175100000Y-165100000D03*
X270275000Y-215325000D03*
X203700000Y-257800000D03*
X133200000Y-173400000D03*
X218500000Y-254000000D03*
X254200000Y-181500000D03*
D81*
X179500000Y-146000000D03*
D80*
X177900000Y-237800000D03*
X142700000Y-157100000D03*
X257700000Y-242600000D03*
X237600000Y-156600000D03*
X270300000Y-186900000D03*
X257300000Y-198800000D03*
X169100000Y-150600000D03*
X222200000Y-162500000D03*
X213400000Y-128000000D03*
X234800000Y-175200000D03*
X157400000Y-257500000D03*
X165100000Y-226400000D03*
X236900000Y-186300000D03*
X178550000Y-130700000D03*
X163400000Y-212400000D03*
D81*
X178250000Y-146000000D03*
D80*
X131150000Y-221375000D03*
X144000000Y-244400000D03*
X195200000Y-242600000D03*
D81*
X177000000Y-137500000D03*
D80*
X211750000Y-241250000D03*
X231900000Y-247600000D03*
X215625000Y-129350000D03*
X184275000Y-270425000D03*
X240600000Y-141000000D03*
X226300000Y-234900000D03*
D83*
X198700000Y-142709502D03*
D80*
X268775000Y-178300000D03*
X186300000Y-255500000D03*
X241100000Y-240400000D03*
X241100000Y-188300000D03*
X208410000Y-160764723D03*
X162100000Y-192300000D03*
X192000000Y-271200000D03*
X247450000Y-168200000D03*
X162300000Y-178100000D03*
X146000000Y-218500000D03*
X249150000Y-146925000D03*
X228600000Y-265800000D03*
X148600000Y-172800000D03*
X227500000Y-149800000D03*
X221600000Y-268450000D03*
X210600000Y-271000000D03*
X186600000Y-128500000D03*
X186300000Y-163000000D03*
X271100000Y-208000000D03*
X173800000Y-266700000D03*
X173000000Y-228750000D03*
X213100000Y-236600000D03*
X134300000Y-228500000D03*
X191800000Y-239400000D03*
X157100000Y-160000000D03*
X183000000Y-144100000D03*
X244700000Y-256200000D03*
X252775000Y-248825000D03*
X150975000Y-253025000D03*
X226800000Y-171400000D03*
X129200000Y-210500000D03*
X237900000Y-207500000D03*
X224000000Y-132400000D03*
X150800000Y-231400000D03*
X161700000Y-243500000D03*
D81*
X177250000Y-145750000D03*
D80*
X237450497Y-220000000D03*
X188300000Y-159100000D03*
X146900000Y-150875000D03*
X129525000Y-184300000D03*
X254500000Y-153500000D03*
X168600000Y-134900000D03*
D81*
X179500000Y-137500000D03*
D80*
X153200000Y-145400000D03*
X265900000Y-171400000D03*
X170225000Y-173075000D03*
X156700000Y-193900000D03*
X251700000Y-225200000D03*
X157900000Y-210900000D03*
X242600000Y-204700000D03*
D81*
X178250000Y-137000000D03*
D80*
X256400000Y-211000000D03*
X204700000Y-157500000D03*
X142900000Y-203900000D03*
D83*
X195324500Y-142100000D03*
X185800000Y-142100000D03*
X203950000Y-255275000D03*
X217650000Y-251400000D03*
X212450000Y-254920000D03*
X229250000Y-251250000D03*
X238880000Y-235990000D03*
X226800000Y-247470000D03*
X250100000Y-232100000D03*
X252290000Y-212900000D03*
X255200000Y-199000000D03*
X255450000Y-214250000D03*
X257170000Y-201190000D03*
X252390000Y-183870000D03*
X237230000Y-161060000D03*
X244680000Y-168120000D03*
X226610000Y-151910000D03*
X241360000Y-162610000D03*
X198800000Y-146000000D03*
X205750000Y-145200000D03*
X147525000Y-216475000D03*
X144675000Y-203525000D03*
X153325000Y-228375000D03*
X144875000Y-213650000D03*
X159710000Y-239490000D03*
X173820000Y-248060000D03*
X210997549Y-261500000D03*
X207175000Y-257625000D03*
D80*
X211340000Y-266420000D03*
D83*
X211375000Y-259375000D03*
X265060000Y-228210000D03*
X268610000Y-208650000D03*
D80*
X254862500Y-173862500D03*
D83*
X253800000Y-157600000D03*
X252500000Y-160600000D03*
D80*
X266000000Y-174600000D03*
X215780000Y-133730000D03*
X213775000Y-130800500D03*
X213000000Y-129800000D03*
X213800000Y-133200000D03*
X144100000Y-155300000D03*
X147275000Y-161075000D03*
D83*
X132000000Y-177500000D03*
X134250000Y-171500000D03*
D80*
X186300000Y-269400000D03*
X239265734Y-217684266D03*
X229500000Y-229000000D03*
X183850000Y-132200000D03*
X189500000Y-139300000D03*
X215882677Y-132399500D03*
X215120000Y-130770000D03*
X130950000Y-178510000D03*
X151425000Y-156925000D03*
X149925000Y-151100000D03*
X152325000Y-160000000D03*
X193925000Y-262000000D03*
X182550000Y-268425000D03*
X191925000Y-264575000D03*
X216500000Y-268900000D03*
D83*
X238450000Y-216750000D03*
X237780000Y-205200000D03*
X235975000Y-179325000D03*
X239275000Y-185100000D03*
X195640000Y-158730000D03*
X201500000Y-159062855D03*
X163325000Y-181775000D03*
X161575000Y-185160000D03*
X155860000Y-204240000D03*
X154750000Y-189240000D03*
X155120000Y-207510000D03*
X162750000Y-225750000D03*
X162660000Y-222650000D03*
X172270000Y-235740000D03*
X174430000Y-236340000D03*
X187330000Y-241750000D03*
D80*
X165500000Y-177000000D03*
X178400000Y-153400000D03*
D83*
X198950000Y-144050000D03*
X209875500Y-145600000D03*
X204600000Y-149100000D03*
X221500000Y-150100000D03*
X211300000Y-146099500D03*
X204360000Y-146060000D03*
X223290000Y-145450000D03*
D80*
X203050000Y-259575000D03*
X226000000Y-160620000D03*
D83*
X252810000Y-180820000D03*
X200250000Y-154500000D03*
X194658411Y-145358411D03*
D80*
X190888000Y-260250000D03*
X243800000Y-168675000D03*
D83*
X203867500Y-156642500D03*
X220250000Y-153750000D03*
D80*
X246170000Y-155470000D03*
D83*
X234750000Y-158750000D03*
X209108411Y-146408411D03*
D80*
X248660000Y-232150000D03*
X197250000Y-154750000D03*
D83*
X253580000Y-220325000D03*
D80*
X239575000Y-245550000D03*
D83*
X194200000Y-146060498D03*
X169600000Y-147000000D03*
X208600000Y-138500000D03*
X191975000Y-138175000D03*
X204673056Y-137173056D03*
X239800000Y-176450000D03*
X211900000Y-151600000D03*
X213924268Y-158000000D03*
X209730000Y-148370000D03*
D80*
X252125000Y-151100000D03*
D84*
X217000000Y-200000000D02*
X220000000Y-200000000D01*
X220000000Y-200000000D02*
X225152620Y-205152620D01*
X225152620Y-205152620D02*
X225152620Y-207925000D01*
D85*
X257850000Y-165250000D02*
X259900000Y-163200000D01*
X257250000Y-165250000D02*
X257850000Y-165250000D01*
X261300000Y-166850000D02*
X261300000Y-163500000D01*
X261300000Y-163500000D02*
X260350000Y-162550000D01*
X260350000Y-162550000D02*
X258800000Y-162550000D01*
X258800000Y-162550000D02*
X256500000Y-164850000D01*
X256500000Y-164850000D02*
X256500000Y-165670443D01*
X256500000Y-165670443D02*
X255970000Y-166200443D01*
D86*
X187802500Y-252749161D02*
X187725000Y-252671661D01*
D87*
X231890516Y-228425693D02*
X231324307Y-228425693D01*
X231324307Y-228425693D02*
X229550000Y-230200000D01*
X229550000Y-230200000D02*
X228600000Y-230200000D01*
X228600000Y-230200000D02*
X227450000Y-231350000D01*
X227450000Y-231350000D02*
X225600000Y-231350000D01*
X225600000Y-231350000D02*
X223550000Y-233400000D01*
X223550000Y-233400000D02*
X220550000Y-233400000D01*
X220550000Y-233400000D02*
X215306712Y-238643288D01*
X215306712Y-238643288D02*
X207818011Y-238643288D01*
D86*
X223000000Y-232200000D02*
X220200000Y-232200000D01*
X220200000Y-232200000D02*
X216700000Y-235700000D01*
X216700000Y-235700000D02*
X216450000Y-235700000D01*
X216450000Y-235700000D02*
X214600000Y-237550000D01*
X154750000Y-189240000D02*
X154000000Y-189990000D01*
X154000000Y-189990000D02*
X154000000Y-202380000D01*
X154000000Y-202380000D02*
X155860000Y-204240000D01*
D88*
X158169157Y-208672114D02*
X155500000Y-206002957D01*
X155500000Y-206002957D02*
X155500000Y-205240000D01*
X156860000Y-204654214D02*
X156860000Y-200934792D01*
X155500000Y-205240000D02*
X156274214Y-205240000D01*
X156274214Y-205240000D02*
X156860000Y-204654214D01*
X156860000Y-200934792D02*
X155500000Y-199574792D01*
X155500000Y-190800000D02*
X159437370Y-186862630D01*
X159437370Y-186862630D02*
X159437370Y-186594849D01*
X155500000Y-199574792D02*
X155500000Y-190800000D01*
X146738593Y-191100000D02*
X146502620Y-187375000D01*
X146502620Y-187375000D02*
X145500000Y-181150000D01*
X145500000Y-181150000D02*
X136150000Y-181150000D01*
D84*
X152000000Y-181200000D02*
X151950000Y-181150000D01*
X136150000Y-181150000D02*
X135900000Y-181400000D01*
X151950000Y-181150000D02*
X136150000Y-181150000D01*
D89*
X255325000Y-170975000D02*
X255275000Y-170975000D01*
X255275000Y-170975000D02*
X253350000Y-172900000D01*
X253350000Y-172900000D02*
X248000000Y-172900000D01*
D88*
X255450000Y-178084688D02*
X252465312Y-178084688D01*
X252465312Y-178084688D02*
X250850000Y-179700000D01*
X250850000Y-179700000D02*
X250200000Y-179700000D01*
X228832835Y-233600000D02*
X228425693Y-233192858D01*
X228425693Y-233192858D02*
X228425693Y-231890516D01*
X236425000Y-230835120D02*
X235369604Y-231890516D01*
X235369604Y-231890516D02*
X228425693Y-231890516D01*
D87*
X192700000Y-245550000D02*
X192700000Y-246167380D01*
X192700000Y-246167380D02*
X192442380Y-246425000D01*
D86*
X189900000Y-246450000D02*
X189900000Y-249550000D01*
X189900000Y-249550000D02*
X193092620Y-252742620D01*
X193092620Y-252742620D02*
X199642620Y-252742620D01*
X199642620Y-252742620D02*
X200850000Y-253950000D01*
X192468799Y-242581201D02*
X192468799Y-241418799D01*
X188425075Y-237375075D02*
X187448952Y-237375075D01*
X191050000Y-244000000D02*
X192468799Y-242581201D01*
X192468799Y-241418799D02*
X188425075Y-237375075D01*
D87*
X192882500Y-253642620D02*
X194039880Y-254800000D01*
X194039880Y-254800000D02*
X203284621Y-254800000D01*
X229770737Y-249678931D02*
X235446069Y-249678931D01*
X203284621Y-254800000D02*
X206584621Y-251500000D01*
X206584621Y-251500000D02*
X213750000Y-251500000D01*
X235446069Y-249678931D02*
X239575000Y-245550000D01*
X213750000Y-251500000D02*
X215000000Y-250250000D01*
X215000000Y-250250000D02*
X229199668Y-250250000D01*
X229199668Y-250250000D02*
X229770737Y-249678931D01*
D86*
X197300000Y-237650000D02*
X194200000Y-240750000D01*
X209100000Y-237650000D02*
X197300000Y-237650000D01*
D88*
X228425693Y-231890516D02*
X217700000Y-237900000D01*
X217700000Y-237900000D02*
X215400000Y-240200000D01*
X215400000Y-240200000D02*
X215400000Y-241150000D01*
X215400000Y-241150000D02*
X214050000Y-242500000D01*
X214050000Y-242500000D02*
X209341271Y-242500000D01*
X209341271Y-242500000D02*
X208672114Y-241830843D01*
D86*
X213775000Y-245126141D02*
X213240121Y-244591262D01*
X213093199Y-247725001D02*
X214225000Y-246593200D01*
X207374999Y-247274999D02*
X212906801Y-247274999D01*
X213558320Y-244273063D02*
X213558320Y-243919510D01*
X207374999Y-247725001D02*
X213093199Y-247725001D01*
X214225000Y-244939743D02*
X213558320Y-244273063D01*
X214225000Y-246593200D02*
X214225000Y-244939743D01*
X212906801Y-247274999D02*
X213775000Y-246406800D01*
X213775000Y-246406800D02*
X213775000Y-245126141D01*
X205975000Y-245875000D02*
X207374999Y-247274999D01*
X205975000Y-249125000D02*
X207374999Y-247725001D01*
X213240121Y-244591262D02*
X212886568Y-244591262D01*
X187802500Y-253642620D02*
X187802500Y-252749161D01*
X187167500Y-253642620D02*
X187167500Y-252779161D01*
X187167500Y-252779161D02*
X187275000Y-252671661D01*
X186700000Y-250075000D02*
X187013603Y-250075000D01*
X187013603Y-250075000D02*
X187275000Y-250336397D01*
X187275000Y-250336397D02*
X187275000Y-252671661D01*
X186700000Y-249125000D02*
X187725000Y-250150000D01*
X187725000Y-250150000D02*
X187725000Y-252671661D01*
D87*
X190342500Y-254642500D02*
X190342500Y-253642620D01*
X190600000Y-254900000D02*
X190342500Y-254642500D01*
D86*
X203825000Y-249150000D02*
X203825000Y-249643200D01*
X203825000Y-246906800D02*
X203825000Y-249150000D01*
X203825000Y-249150000D02*
X204650000Y-249150000D01*
X204650000Y-249150000D02*
X204675000Y-249125000D01*
X204500000Y-245700000D02*
X204675000Y-245875000D01*
X203850000Y-245700000D02*
X204500000Y-245700000D01*
X200580000Y-245690000D02*
X200854999Y-245964999D01*
X200854999Y-245964999D02*
X202883199Y-245964999D01*
X202883199Y-245964999D02*
X203825000Y-246906800D01*
X203825000Y-249643200D02*
X202593200Y-250875000D01*
X202593200Y-250875000D02*
X195269942Y-250875000D01*
X195269942Y-250875000D02*
X195069942Y-251075000D01*
X200580000Y-246690000D02*
X200854999Y-246415001D01*
X203375000Y-249456800D02*
X202406800Y-250425000D01*
X200854999Y-246415001D02*
X202696801Y-246415001D01*
X202696801Y-246415001D02*
X203375000Y-247093200D01*
X202406800Y-250425000D02*
X195369942Y-250425000D01*
X203375000Y-247093200D02*
X203375000Y-249456800D01*
X195369942Y-250425000D02*
X195069942Y-250125000D01*
X238450000Y-216750000D02*
X238450000Y-216050000D01*
X238450000Y-216050000D02*
X236250000Y-213850000D01*
X236250000Y-213850000D02*
X236250000Y-206730000D01*
X236250000Y-206730000D02*
X237780000Y-205200000D01*
D87*
X253580000Y-220325000D02*
X253580000Y-221020000D01*
X253580000Y-221020000D02*
X252620000Y-221980000D01*
X252620000Y-221980000D02*
X252620000Y-228190000D01*
X252620000Y-228190000D02*
X248660000Y-232150000D01*
X197250000Y-154750000D02*
X199000000Y-154750000D01*
X199000000Y-154750000D02*
X203500000Y-159250000D01*
X203500000Y-159250000D02*
X209558006Y-159250000D01*
X234400000Y-182650000D02*
X234400000Y-193350000D01*
X234400000Y-193350000D02*
X234750000Y-193700000D01*
X209558006Y-159250000D02*
X211721231Y-160483731D01*
X213377311Y-161627311D02*
X234400000Y-182650000D01*
X211721231Y-160483731D02*
X212864811Y-161627311D01*
X240847196Y-220325000D02*
X253580000Y-220325000D01*
X212864811Y-161627311D02*
X213377311Y-161627311D01*
X234750000Y-214227804D02*
X240847196Y-220325000D01*
X234750000Y-193700000D02*
X234750000Y-214227804D01*
X239250000Y-216750000D02*
X239250000Y-212475000D01*
X239265734Y-216765734D02*
X239250000Y-216750000D01*
X239265734Y-217684266D02*
X239265734Y-216765734D01*
X239250000Y-212475000D02*
X241830843Y-209894157D01*
X241830843Y-209894157D02*
X241830843Y-208672114D01*
X252810000Y-180820000D02*
X253015000Y-181025000D01*
X253015000Y-181025000D02*
X253015000Y-182765000D01*
X253015000Y-182765000D02*
X258087500Y-187837500D01*
X258087500Y-187837500D02*
X258087500Y-197087500D01*
X258087500Y-197087500D02*
X261150000Y-200150000D01*
X261150000Y-200150000D02*
X261150000Y-218050000D01*
X260070000Y-219130000D02*
X259230000Y-219130000D01*
X261150000Y-218050000D02*
X260070000Y-219130000D01*
D86*
X221600000Y-259350000D02*
X241500000Y-257620000D01*
X241500000Y-257620000D02*
X248800000Y-251900000D01*
X248800000Y-251900000D02*
X253680000Y-245860000D01*
X258710000Y-240100000D02*
X258710000Y-225990000D01*
X253680000Y-245860000D02*
X258710000Y-240100000D01*
X258710000Y-225990000D02*
X261000000Y-223700000D01*
X261000000Y-223700000D02*
X261000000Y-220100000D01*
X260030000Y-219130000D02*
X259230000Y-219130000D01*
X261000000Y-220100000D02*
X260030000Y-219130000D01*
D88*
X256450000Y-221550000D02*
X259110000Y-221550000D01*
X259110000Y-221550000D02*
X259230000Y-221670000D01*
D85*
X240350000Y-206850761D02*
X240350000Y-207000000D01*
X236430000Y-190370000D02*
X236430000Y-202930761D01*
X236550000Y-190250000D02*
X236430000Y-190370000D01*
X236430000Y-202930761D02*
X240350000Y-206850761D01*
X253007380Y-192007380D02*
X253007380Y-192275000D01*
X251950000Y-190950000D02*
X253007380Y-192007380D01*
X243250000Y-196650000D02*
X249250000Y-190650000D01*
X249250000Y-190650000D02*
X250100000Y-190650000D01*
D87*
X240562630Y-186594849D02*
X240100000Y-190000000D01*
X240100000Y-190000000D02*
X240877062Y-190777062D01*
X240877062Y-190777062D02*
X240877062Y-195677062D01*
X240877062Y-195677062D02*
X244350000Y-199150000D01*
X244350000Y-199150000D02*
X244350000Y-204611871D01*
X244350000Y-204611871D02*
X237375075Y-211586796D01*
X237375075Y-211586796D02*
X237375075Y-212551048D01*
D88*
X167324307Y-228425693D02*
X166800000Y-228950000D01*
X168109484Y-228425693D02*
X167324307Y-228425693D01*
D90*
X240562630Y-213462630D02*
X241600000Y-214500000D01*
X240562630Y-213405151D02*
X240562630Y-213462630D01*
D88*
X244700000Y-189900000D02*
X245000000Y-190200000D01*
X243800000Y-189900000D02*
X244700000Y-189900000D01*
D87*
X241141116Y-152575000D02*
X241992620Y-152575000D01*
X162300000Y-157800000D02*
X161800000Y-158300000D01*
D86*
X166967620Y-164210240D02*
X166967620Y-162332380D01*
D87*
X152825000Y-150000000D02*
X154075000Y-151250000D01*
D88*
X206450000Y-155700000D02*
X207775000Y-154375000D01*
D87*
X240525000Y-153600000D02*
X240600000Y-153525000D01*
D89*
X182100000Y-133125000D02*
X179650000Y-135575000D01*
D88*
X220652620Y-132355000D02*
X220652620Y-132952620D01*
D87*
X151325000Y-249650000D02*
X152865939Y-248109061D01*
D88*
X216100000Y-149500000D02*
X216100000Y-149600000D01*
X226330000Y-159520000D02*
X225544365Y-159520000D01*
X217900000Y-151400000D02*
X217900000Y-154700000D01*
X237100000Y-174500000D02*
X242400000Y-183300000D01*
X229830000Y-157080000D02*
X228910000Y-158000000D01*
D87*
X149875000Y-249650000D02*
X151325000Y-249650000D01*
D88*
X204700000Y-155700000D02*
X206450000Y-155700000D01*
X147202620Y-198425000D02*
X158169157Y-208672114D01*
D87*
X217975000Y-266525000D02*
X217975000Y-268275000D01*
D88*
X187150000Y-143200000D02*
X187150000Y-141650000D01*
X185232380Y-145117620D02*
X187150000Y-143200000D01*
D87*
X218200000Y-266300000D02*
X217975000Y-266525000D01*
X133710590Y-181150000D02*
X133760590Y-181200000D01*
D88*
X185232380Y-151207380D02*
X185232380Y-145117620D01*
X184927795Y-238895576D02*
X177389074Y-234300000D01*
X188900000Y-156800000D02*
X191327886Y-158169157D01*
X231890516Y-171574307D02*
X237100000Y-174500000D01*
D86*
X253952380Y-193575000D02*
X254595000Y-194217620D01*
X166967620Y-162332380D02*
X167225000Y-162075000D01*
D88*
X171574307Y-168109484D02*
X178300000Y-165900000D01*
X185300000Y-151275000D02*
X185594880Y-151275000D01*
X252100000Y-238500000D02*
X249895000Y-237802620D01*
X222000000Y-134300000D02*
X221975000Y-134325000D01*
D89*
X249815240Y-237882380D02*
X249895000Y-237802620D01*
D88*
X172100000Y-234300000D02*
X168109484Y-230309484D01*
X228910000Y-158000000D02*
X227850000Y-158000000D01*
D87*
X167592620Y-160660000D02*
X167592620Y-162075000D01*
X249500000Y-150950000D02*
X249325000Y-150950000D01*
X240075000Y-153600000D02*
X240525000Y-153600000D01*
D86*
X167782380Y-165025000D02*
X166967620Y-164210240D01*
D88*
X224176728Y-160887637D02*
X224176728Y-162073271D01*
X196607043Y-152890000D02*
X201890000Y-152890000D01*
X168109484Y-230309484D02*
X168109484Y-228425693D01*
X209400000Y-156200000D02*
X213405151Y-159437370D01*
D87*
X181200000Y-265772932D02*
X182175000Y-264797932D01*
D88*
X173695627Y-168109484D02*
X176091566Y-170505423D01*
X225952620Y-135997380D02*
X226592620Y-135357380D01*
D87*
X165692620Y-155925000D02*
X164175000Y-155925000D01*
D86*
X253007380Y-194192620D02*
X253000000Y-194200000D01*
D87*
X181200000Y-268100000D02*
X181200000Y-265772932D01*
X240600000Y-153116116D02*
X241141116Y-152575000D01*
D88*
X225373271Y-162073271D02*
X231500000Y-168200000D01*
X243800000Y-189900000D02*
X241830843Y-191327886D01*
D87*
X134355563Y-217875000D02*
X134930563Y-217300000D01*
X131925000Y-181150000D02*
X133710590Y-181150000D01*
D88*
X148850000Y-192750000D02*
X147200000Y-191100000D01*
D87*
X164835000Y-158935000D02*
X164800000Y-158900000D01*
D88*
X224176728Y-162073271D02*
X222066527Y-159963070D01*
D89*
X179650000Y-135575000D02*
X177250000Y-135575000D01*
D87*
X242282380Y-155705000D02*
X241795000Y-155705000D01*
D88*
X181075000Y-135575000D02*
X177250000Y-135575000D01*
D87*
X131800000Y-217875000D02*
X134355563Y-217875000D01*
D88*
X178300000Y-165900000D02*
X184300000Y-158200000D01*
X147200000Y-191100000D02*
X146738593Y-191100000D01*
X176091566Y-170505423D02*
X176091566Y-171291566D01*
D89*
X220847620Y-132550000D02*
X220652620Y-132355000D01*
D88*
X177389074Y-234300000D02*
X172100000Y-234300000D01*
X185594880Y-151275000D02*
X186444880Y-150425000D01*
X242400000Y-183300000D02*
X243800000Y-189900000D01*
X181125000Y-155025000D02*
X184300000Y-158200000D01*
D89*
X221700000Y-132550000D02*
X220847620Y-132550000D01*
D86*
X253007380Y-193575000D02*
X253952380Y-193575000D01*
D89*
X247030000Y-237882380D02*
X249815240Y-237882380D01*
D88*
X225544365Y-159520000D02*
X224176728Y-160887637D01*
X201890000Y-152890000D02*
X204700000Y-155700000D01*
D87*
X264000000Y-181375000D02*
X266875000Y-181375000D01*
D88*
X153700000Y-161100000D02*
X157800000Y-167100000D01*
D87*
X165867620Y-158935000D02*
X167592620Y-160660000D01*
D88*
X220652620Y-132952620D02*
X222000000Y-134300000D01*
D87*
X152225000Y-150000000D02*
X152825000Y-150000000D01*
D88*
X171574307Y-168109484D02*
X173695627Y-168109484D01*
D87*
X249325000Y-150950000D02*
X247850000Y-152425000D01*
D88*
X221975000Y-135997380D02*
X220700000Y-137200000D01*
D87*
X240600000Y-154510000D02*
X240600000Y-153525000D01*
D88*
X191327886Y-158169157D02*
X196607043Y-152890000D01*
X213405151Y-159437370D02*
X217400000Y-159963070D01*
X231500000Y-168200000D02*
X231890516Y-171574307D01*
X186594849Y-240562630D02*
X184927795Y-238895576D01*
D86*
X167225000Y-162075000D02*
X167592620Y-162075000D01*
D88*
X226592620Y-135357380D02*
X229025000Y-135357380D01*
D87*
X161800000Y-158300000D02*
X161800000Y-162500000D01*
X164175000Y-155925000D02*
X162300000Y-157800000D01*
D88*
X146738593Y-191100000D02*
X147202620Y-198425000D01*
X181125000Y-154174500D02*
X181125000Y-155025000D01*
X227850000Y-158000000D02*
X226330000Y-159520000D01*
D86*
X253007380Y-193575000D02*
X253007380Y-194192620D01*
D88*
X221975000Y-134325000D02*
X221975000Y-135997380D01*
D87*
X241795000Y-155705000D02*
X240600000Y-154510000D01*
D88*
X222066527Y-159963070D02*
X217400000Y-159963070D01*
D87*
X240600000Y-153525000D02*
X240600000Y-153116116D01*
X161800000Y-162500000D02*
X161800000Y-162800000D01*
D88*
X221975000Y-135997380D02*
X225952620Y-135997380D01*
X224176728Y-162073271D02*
X225373271Y-162073271D01*
X216100000Y-149600000D02*
X217900000Y-151400000D01*
D87*
X165867620Y-158935000D02*
X164835000Y-158935000D01*
D88*
X217900000Y-154700000D02*
X217400000Y-159963070D01*
X187150000Y-141650000D02*
X181075000Y-135575000D01*
X204700000Y-155700000D02*
X209400000Y-156200000D01*
X185300000Y-151275000D02*
X185232380Y-151207380D01*
X184300000Y-158200000D02*
X188900000Y-156800000D01*
X218170000Y-140622380D02*
X213022380Y-140622380D01*
D87*
X196500000Y-262750000D02*
X195298959Y-262750000D01*
X217515000Y-143972380D02*
X218170000Y-143972380D01*
X171415000Y-161040000D02*
X171495000Y-160960000D01*
D88*
X227400000Y-139300000D02*
X228040000Y-139940000D01*
D89*
X211902620Y-136000000D02*
X211902620Y-134815000D01*
D88*
X251550000Y-196150000D02*
X249600000Y-194200000D01*
X189800000Y-256400000D02*
X190800000Y-256400000D01*
X256500000Y-194729925D02*
X255684925Y-195545000D01*
D87*
X169200000Y-155600000D02*
X167692620Y-155600000D01*
D85*
X138500000Y-166300000D02*
X138400000Y-166300000D01*
X257875000Y-169500000D02*
X259900000Y-167475000D01*
X193560000Y-134010000D02*
X193110000Y-134010000D01*
D87*
X169870000Y-162075000D02*
X170905000Y-161040000D01*
D88*
X234540000Y-150060000D02*
X232890000Y-151710000D01*
D87*
X223397380Y-152675000D02*
X222255000Y-152675000D01*
D90*
X243892620Y-152575000D02*
X243892620Y-151292620D01*
D88*
X228040000Y-139940000D02*
X228040000Y-142540000D01*
D87*
X167592620Y-155500000D02*
X167592620Y-155925000D01*
D86*
X244145240Y-151040000D02*
X243892620Y-151292620D01*
D89*
X222722620Y-142125000D02*
X221220000Y-140622380D01*
D88*
X249600000Y-194200000D02*
X249605000Y-194195000D01*
D85*
X195100000Y-135550000D02*
X193560000Y-134010000D01*
D88*
X241100000Y-256400000D02*
X191600000Y-256400000D01*
D90*
X242700000Y-153225000D02*
X243350000Y-152575000D01*
D89*
X221632620Y-144385000D02*
X221220000Y-143972380D01*
D88*
X246050000Y-170950000D02*
X248000000Y-172900000D01*
D90*
X211612620Y-135710000D02*
X211902620Y-136000000D01*
D87*
X222195000Y-146680120D02*
X221764880Y-146250000D01*
X150500000Y-164000000D02*
X150500000Y-160000000D01*
D85*
X139600000Y-165200000D02*
X138500000Y-166300000D01*
D87*
X223000000Y-147750000D02*
X223407380Y-147342620D01*
D90*
X243350000Y-152575000D02*
X243892620Y-152575000D01*
D88*
X229900000Y-144400000D02*
X229900000Y-150960000D01*
D89*
X220115000Y-146747380D02*
X220115000Y-145077380D01*
D87*
X191802620Y-261902620D02*
X191802620Y-261805000D01*
X218750000Y-147250000D02*
X219252620Y-146747380D01*
X251107380Y-193575000D02*
X251525000Y-193575000D01*
D88*
X233370000Y-154430000D02*
X233370000Y-154450000D01*
D87*
X191612500Y-256412500D02*
X191600000Y-256400000D01*
X167692620Y-155600000D02*
X167592620Y-155500000D01*
X168332380Y-143435000D02*
X168332380Y-145000000D01*
D86*
X249605000Y-193330000D02*
X249850000Y-193575000D01*
D87*
X197375000Y-262375000D02*
X196875000Y-262375000D01*
X220612380Y-146250000D02*
X220115000Y-146747380D01*
D88*
X227682380Y-139300000D02*
X222542380Y-139300000D01*
X255050000Y-196150000D02*
X253775000Y-197425000D01*
X213022380Y-140622380D02*
X211902620Y-139502620D01*
D85*
X195100000Y-136700000D02*
X195100000Y-135550000D01*
X144675000Y-165200000D02*
X139600000Y-165200000D01*
D87*
X218750000Y-149170000D02*
X218750000Y-147250000D01*
X167592620Y-162725000D02*
X168125000Y-162725000D01*
X165692620Y-156575000D02*
X166267620Y-156575000D01*
D88*
X238055635Y-157700000D02*
X246050000Y-165694365D01*
X257250000Y-240250000D02*
X241100000Y-256400000D01*
D87*
X166290000Y-156552620D02*
X166290000Y-156550000D01*
D89*
X167592620Y-154192620D02*
X166350000Y-152950000D01*
D87*
X195048959Y-263000000D02*
X192900000Y-263000000D01*
D88*
X232890000Y-151710000D02*
X232890000Y-153970000D01*
D87*
X222032500Y-148342620D02*
X221467620Y-148342620D01*
X169492620Y-162075000D02*
X168775000Y-162075000D01*
D89*
X167100000Y-143700000D02*
X168067380Y-143700000D01*
X166350000Y-152950000D02*
X166350000Y-152100000D01*
D85*
X259900000Y-167475000D02*
X259900000Y-163200000D01*
D87*
X251525000Y-193575000D02*
X252175000Y-192925000D01*
X168125000Y-162725000D02*
X168775000Y-162075000D01*
X169492620Y-162075000D02*
X169870000Y-162075000D01*
X166915000Y-155925000D02*
X167592620Y-155925000D01*
D85*
X197375000Y-266075000D02*
X197375000Y-265325000D01*
D87*
X256300000Y-189800000D02*
X256300000Y-190142620D01*
D88*
X228040000Y-142540000D02*
X229900000Y-144400000D01*
D87*
X214442380Y-147045000D02*
X217515000Y-143972380D01*
X189707500Y-253642620D02*
X189707500Y-256307500D01*
X166267620Y-156575000D02*
X166290000Y-156552620D01*
D88*
X257250000Y-222350000D02*
X257250000Y-240250000D01*
X256300000Y-189800000D02*
X256500000Y-190000000D01*
D87*
X147225000Y-166675000D02*
X147825000Y-166675000D01*
X223000000Y-148250000D02*
X223000000Y-147750000D01*
D89*
X166350000Y-152100000D02*
X166350000Y-148950000D01*
D85*
X141500000Y-167600000D02*
X140200000Y-166300000D01*
D87*
X191612500Y-261614880D02*
X191802620Y-261805000D01*
D85*
X201850000Y-270550000D02*
X197375000Y-266075000D01*
D89*
X211902620Y-137325000D02*
X211902620Y-136000000D01*
D88*
X222542380Y-139300000D02*
X227400000Y-139300000D01*
D85*
X201600000Y-270300000D02*
X201600000Y-266900000D01*
D86*
X245695000Y-151040000D02*
X244145240Y-151040000D01*
D88*
X189200000Y-256400000D02*
X189800000Y-256400000D01*
X249605000Y-194195000D02*
X249605000Y-193330000D01*
X255320000Y-220420000D02*
X256450000Y-221550000D01*
D89*
X166350000Y-148950000D02*
X165300000Y-147900000D01*
D87*
X220115000Y-146990000D02*
X220115000Y-146747380D01*
D88*
X243000000Y-150400000D02*
X242660000Y-150060000D01*
X221220000Y-140622380D02*
X222542380Y-139300000D01*
D85*
X201850000Y-270550000D02*
X201600000Y-270300000D01*
D88*
X232890000Y-153970000D02*
X233370000Y-154450000D01*
D87*
X252175000Y-192925000D02*
X253007380Y-192925000D01*
D88*
X242660000Y-150060000D02*
X234540000Y-150060000D01*
X256450000Y-221550000D02*
X257250000Y-222350000D01*
D87*
X191612500Y-258842620D02*
X191612500Y-256412500D01*
D88*
X191600000Y-256400000D02*
X190400000Y-256400000D01*
X256500000Y-190000000D02*
X256500000Y-194729925D01*
D89*
X198250000Y-136700000D02*
X199240000Y-135710000D01*
X224347380Y-142125000D02*
X222722620Y-142125000D01*
D88*
X255684925Y-195545000D02*
X255655000Y-195545000D01*
D87*
X221467620Y-148342620D02*
X220115000Y-146990000D01*
X195298959Y-262750000D02*
X195048959Y-263000000D01*
D88*
X236620000Y-157700000D02*
X238055635Y-157700000D01*
D87*
X167592620Y-154192620D02*
X167592620Y-155500000D01*
D85*
X140200000Y-166300000D02*
X138400000Y-166300000D01*
D89*
X165300000Y-147900000D02*
X165300000Y-145500000D01*
D88*
X229025000Y-137957380D02*
X227682380Y-139300000D01*
D87*
X222032500Y-148342620D02*
X222907380Y-148342620D01*
X169492620Y-158807380D02*
X170100000Y-158200000D01*
D89*
X165300000Y-145500000D02*
X167100000Y-143700000D01*
D87*
X170905000Y-161040000D02*
X171415000Y-161040000D01*
D89*
X224347380Y-144385000D02*
X221632620Y-144385000D01*
D88*
X255050000Y-196150000D02*
X251550000Y-196150000D01*
X253775000Y-214145000D02*
X255320000Y-215690000D01*
D90*
X207110000Y-135710000D02*
X211612620Y-135710000D01*
D87*
X189072500Y-253642620D02*
X189072500Y-256272500D01*
D88*
X246050000Y-165694365D02*
X246050000Y-170950000D01*
D87*
X150500000Y-160000000D02*
X158400000Y-152100000D01*
D89*
X243892620Y-151292620D02*
X243000000Y-150400000D01*
X195100000Y-136700000D02*
X198250000Y-136700000D01*
D87*
X222907380Y-148342620D02*
X223000000Y-148250000D01*
D89*
X220115000Y-145077380D02*
X221220000Y-143972380D01*
D87*
X219252620Y-146747380D02*
X220115000Y-146747380D01*
X189707500Y-256307500D02*
X189800000Y-256400000D01*
X166290000Y-156550000D02*
X166915000Y-155925000D01*
D88*
X233370000Y-154450000D02*
X236620000Y-157700000D01*
D87*
X191612500Y-258842620D02*
X191612500Y-261614880D01*
X169492620Y-162075000D02*
X169492620Y-158807380D01*
X221764880Y-146250000D02*
X220612380Y-146250000D01*
D88*
X248000000Y-181500000D02*
X248000000Y-172900000D01*
D87*
X158400000Y-152100000D02*
X166350000Y-152100000D01*
X168332380Y-145000000D02*
X168157380Y-145175000D01*
D90*
X241992620Y-153225000D02*
X242700000Y-153225000D01*
D87*
X196875000Y-262375000D02*
X196500000Y-262750000D01*
D88*
X253775000Y-197425000D02*
X253775000Y-214145000D01*
D87*
X222255000Y-152675000D02*
X218750000Y-149170000D01*
X192900000Y-263000000D02*
X191802620Y-261902620D01*
D88*
X256300000Y-189800000D02*
X248000000Y-181500000D01*
X211902620Y-139502620D02*
X211902620Y-137325000D01*
X255320000Y-215690000D02*
X255320000Y-220420000D01*
D86*
X249850000Y-193575000D02*
X251107380Y-193575000D01*
D89*
X168067380Y-143700000D02*
X168332380Y-143435000D01*
D87*
X189072500Y-256272500D02*
X189200000Y-256400000D01*
X214442380Y-149555000D02*
X214442380Y-147045000D01*
D88*
X229900000Y-150960000D02*
X233370000Y-154430000D01*
D89*
X199240000Y-135710000D02*
X207110000Y-135710000D01*
D87*
X223407380Y-147342620D02*
X223857500Y-147342620D01*
X147825000Y-166675000D02*
X150500000Y-164000000D01*
D88*
X255655000Y-195545000D02*
X255050000Y-196150000D01*
D89*
X201655000Y-139955000D02*
X201655000Y-138430000D01*
X215175000Y-137325000D02*
X215250000Y-137250000D01*
D90*
X203740000Y-132960000D02*
X203700000Y-133000000D01*
D87*
X170057380Y-145825000D02*
X172947380Y-145825000D01*
X169492620Y-162725000D02*
X170625000Y-162725000D01*
X170625000Y-162725000D02*
X170700000Y-162800000D01*
D89*
X242660120Y-230175000D02*
X241675000Y-230175000D01*
D87*
X244803652Y-152901367D02*
X245383633Y-152901367D01*
D90*
X191950000Y-136000000D02*
X192050000Y-136100000D01*
X207110000Y-132960000D02*
X207110000Y-134010000D01*
D87*
X168157380Y-145825000D02*
X168157380Y-146475000D01*
D86*
X165820000Y-154325000D02*
X165325000Y-154325000D01*
D89*
X200130000Y-139955000D02*
X198605000Y-139955000D01*
D90*
X193110000Y-136100000D02*
X193110000Y-135710000D01*
D87*
X189707500Y-259992500D02*
X189707500Y-258842620D01*
D86*
X249662878Y-191780000D02*
X250282878Y-192400000D01*
D87*
X221400000Y-147000000D02*
X221742620Y-147342620D01*
D89*
X202745000Y-139955000D02*
X201655000Y-139955000D01*
X167417620Y-158935000D02*
X168435000Y-158935000D01*
D87*
X222695000Y-149005120D02*
X222695000Y-149445000D01*
X243581450Y-156631852D02*
X243832380Y-156380922D01*
D89*
X226320000Y-142052380D02*
X226247380Y-142125000D01*
X203800000Y-138900000D02*
X202745000Y-139955000D01*
D90*
X207110000Y-147310000D02*
X207110000Y-146960000D01*
D89*
X238500000Y-220000000D02*
X238447380Y-220052620D01*
X173125000Y-147375000D02*
X173000000Y-147500000D01*
D88*
X141802620Y-189952620D02*
X141700000Y-189850000D01*
X217545000Y-132355000D02*
X218752620Y-132355000D01*
D89*
X238852620Y-232852620D02*
X238500000Y-232500000D01*
D87*
X188950000Y-260750000D02*
X189707500Y-259992500D01*
D89*
X233372949Y-138348342D02*
X233372949Y-137127051D01*
D87*
X222695000Y-149445000D02*
X223000000Y-149750000D01*
X223092380Y-150535000D02*
X223092380Y-149842380D01*
D89*
X249895000Y-235902620D02*
X249895000Y-234605000D01*
X241675000Y-230175000D02*
X241000000Y-229500000D01*
X168435000Y-158935000D02*
X168800000Y-159300000D01*
X175287740Y-146002620D02*
X175525000Y-146239880D01*
D87*
X167592620Y-156575000D02*
X168375000Y-156575000D01*
D89*
X174500000Y-146002620D02*
X174500000Y-147500000D01*
D87*
X223092380Y-149842380D02*
X223000000Y-149750000D01*
D89*
X175525000Y-146239880D02*
X175525000Y-147475000D01*
D87*
X169332380Y-165025000D02*
X170175000Y-165025000D01*
D89*
X245760000Y-232932380D02*
X245760000Y-231240000D01*
D87*
X204215000Y-241585000D02*
X204215000Y-242307620D01*
X169882380Y-143435000D02*
X170835000Y-143435000D01*
D89*
X198605000Y-138430000D02*
X200130000Y-138430000D01*
D90*
X203510000Y-132960000D02*
X203510000Y-133710000D01*
X196710000Y-132960000D02*
X193110000Y-132960000D01*
D87*
X222032500Y-147342620D02*
X222032500Y-147842620D01*
D88*
X141802620Y-198425000D02*
X141802620Y-199297380D01*
D89*
X226320000Y-141070000D02*
X226320000Y-142052380D01*
D87*
X167225000Y-146475000D02*
X167100000Y-146600000D01*
D88*
X218300000Y-136882380D02*
X217415000Y-135997380D01*
D89*
X198605000Y-139955000D02*
X198605000Y-138430000D01*
D88*
X141802620Y-197702620D02*
X141100000Y-197000000D01*
D86*
X251107380Y-192925000D02*
X250807878Y-192925000D01*
D87*
X168157380Y-146475000D02*
X167225000Y-146475000D01*
D89*
X245760000Y-231240000D02*
X246000000Y-231000000D01*
D90*
X203510000Y-133710000D02*
X203800000Y-134000000D01*
D87*
X223195000Y-149005120D02*
X223195000Y-149555000D01*
D89*
X173125000Y-146002620D02*
X172997380Y-146002620D01*
D90*
X196710000Y-132960000D02*
X196710000Y-133990000D01*
D86*
X192540000Y-146960000D02*
X192100000Y-147400000D01*
D89*
X175989880Y-146239880D02*
X176750000Y-147000000D01*
D87*
X223195000Y-149555000D02*
X223000000Y-149750000D01*
D90*
X203700000Y-133000000D02*
X203660000Y-132960000D01*
X200110000Y-133990000D02*
X200100000Y-134000000D01*
D87*
X247935120Y-227275000D02*
X248575000Y-227275000D01*
D86*
X254595000Y-192667620D02*
X254967620Y-192667620D01*
D89*
X239372380Y-220200000D02*
X238447380Y-221125000D01*
X235625000Y-220752656D02*
X235625000Y-221202620D01*
D88*
X141802620Y-191325000D02*
X141802620Y-189952620D01*
D90*
X207600000Y-147800000D02*
X207110000Y-147310000D01*
X193110000Y-136560000D02*
X193110000Y-136100000D01*
D89*
X243220000Y-232932380D02*
X242932380Y-232932380D01*
D88*
X218300000Y-137500000D02*
X218300000Y-136882380D01*
D89*
X174500000Y-146002620D02*
X175287740Y-146002620D01*
X236318828Y-220058828D02*
X235625000Y-220752656D01*
D87*
X244480019Y-153225000D02*
X243892620Y-153225000D01*
D86*
X249605000Y-191780000D02*
X249662878Y-191780000D01*
D87*
X221742620Y-147342620D02*
X222032500Y-147342620D01*
D88*
X141802620Y-199297380D02*
X141200000Y-199900000D01*
D90*
X192050000Y-136100000D02*
X193110000Y-136100000D01*
D89*
X214935000Y-134815000D02*
X213802620Y-134815000D01*
D87*
X168375000Y-156575000D02*
X168400000Y-156600000D01*
D89*
X238447380Y-220052620D02*
X238447380Y-221125000D01*
D86*
X250807878Y-192925000D02*
X250282878Y-192400000D01*
D89*
X242932380Y-232932380D02*
X242000000Y-232000000D01*
D86*
X165325000Y-154325000D02*
X165100000Y-154100000D01*
D89*
X238369760Y-221202620D02*
X238447380Y-221125000D01*
D88*
X217415000Y-135997380D02*
X218852620Y-135997380D01*
D89*
X197000000Y-138729500D02*
X198225500Y-139955000D01*
D90*
X203660000Y-132960000D02*
X203510000Y-132960000D01*
D89*
X173125000Y-146002620D02*
X174500000Y-146002620D01*
D90*
X200960000Y-132960000D02*
X200110000Y-132960000D01*
X200110000Y-132960000D02*
X196710000Y-132960000D01*
D87*
X220115000Y-149115000D02*
X220500000Y-149500000D01*
D89*
X233372949Y-137127051D02*
X233500000Y-137000000D01*
D88*
X141802620Y-198425000D02*
X141802620Y-197702620D01*
X141802620Y-191325000D02*
X141802620Y-192747380D01*
D89*
X239500000Y-220200000D02*
X239372380Y-220200000D01*
D87*
X248575000Y-227275000D02*
X249450000Y-228150000D01*
D88*
X218852620Y-135997380D02*
X219000000Y-135850000D01*
D86*
X254967620Y-192667620D02*
X255300000Y-193000000D01*
X193110000Y-146960000D02*
X192540000Y-146960000D01*
D89*
X226305000Y-144385000D02*
X226247380Y-144385000D01*
D87*
X204170000Y-241540000D02*
X204215000Y-241585000D01*
D89*
X200130000Y-138430000D02*
X201655000Y-138430000D01*
X240455000Y-232852620D02*
X238852620Y-232852620D01*
X213802620Y-137325000D02*
X215175000Y-137325000D01*
D88*
X141802620Y-192747380D02*
X141600000Y-192950000D01*
D89*
X201655000Y-139955000D02*
X200130000Y-139955000D01*
X175525000Y-147475000D02*
X175500000Y-147500000D01*
D90*
X207110000Y-133190000D02*
X206000000Y-134300000D01*
X200110000Y-132960000D02*
X200110000Y-133990000D01*
D87*
X244803652Y-152901367D02*
X244480019Y-153225000D01*
X170835000Y-143435000D02*
X171000000Y-143600000D01*
D90*
X207110000Y-134860000D02*
X207110000Y-134010000D01*
D87*
X172947380Y-145825000D02*
X173125000Y-146002620D01*
D89*
X172997380Y-146002620D02*
X171750000Y-147250000D01*
D88*
X217300000Y-132600000D02*
X217545000Y-132355000D01*
D87*
X245383633Y-152901367D02*
X245695000Y-152590000D01*
X186444880Y-147605120D02*
X186444880Y-148475000D01*
D89*
X201655000Y-139955000D02*
X201655000Y-141480000D01*
D90*
X207110000Y-132960000D02*
X207110000Y-133190000D01*
D87*
X220115000Y-148647380D02*
X220115000Y-149115000D01*
D89*
X200130000Y-137000000D02*
X200130000Y-138430000D01*
X200130000Y-142800000D02*
X200130000Y-139955000D01*
X198605000Y-141480000D02*
X198605000Y-139955000D01*
X235625000Y-221202620D02*
X238369760Y-221202620D01*
D87*
X188950000Y-260750000D02*
X188950000Y-260852380D01*
D90*
X203510000Y-132960000D02*
X200960000Y-132960000D01*
D89*
X249895000Y-234605000D02*
X250000000Y-234500000D01*
D87*
X243832380Y-156380922D02*
X243832380Y-155705000D01*
X171205000Y-162800000D02*
X171495000Y-162510000D01*
D89*
X200130000Y-139955000D02*
X200130000Y-138430000D01*
X175525000Y-146239880D02*
X175989880Y-146239880D01*
X173125000Y-146002620D02*
X173125000Y-147375000D01*
X227150000Y-143540000D02*
X226305000Y-144385000D01*
D90*
X207110000Y-132960000D02*
X203740000Y-132960000D01*
D87*
X170175000Y-165025000D02*
X170300000Y-164900000D01*
D89*
X198225500Y-139955000D02*
X198605000Y-139955000D01*
D87*
X188950000Y-260852380D02*
X189902620Y-261805000D01*
X170700000Y-162800000D02*
X171205000Y-162800000D01*
D90*
X196710000Y-133990000D02*
X196700000Y-134000000D01*
D87*
X186700000Y-147350000D02*
X186444880Y-147605120D01*
D89*
X236425000Y-226912620D02*
X236215000Y-226702620D01*
X236425000Y-229010120D02*
X236425000Y-226912620D01*
X238452620Y-225875000D02*
X237042620Y-225875000D01*
X237042620Y-225875000D02*
X236215000Y-226702620D01*
D84*
X225541738Y-207975000D02*
X228400000Y-207975000D01*
D89*
X238447380Y-223025000D02*
X238447380Y-223947380D01*
D88*
X236215000Y-223092620D02*
X235625000Y-222502620D01*
D84*
X225491738Y-207925000D02*
X225541738Y-207975000D01*
D89*
X238452620Y-224047380D02*
X238500000Y-224000000D01*
D88*
X233200000Y-222700000D02*
X234000000Y-223500000D01*
X234000000Y-223500000D02*
X236215000Y-223500000D01*
X238000000Y-223500000D02*
X238500000Y-224000000D01*
D84*
X233200000Y-212775000D02*
X233200000Y-222700000D01*
D89*
X238447380Y-223947380D02*
X238500000Y-224000000D01*
D84*
X225152620Y-207925000D02*
X225491738Y-207925000D01*
D88*
X236215000Y-223500000D02*
X238000000Y-223500000D01*
X236215000Y-223500000D02*
X236215000Y-223092620D01*
D84*
X228400000Y-207975000D02*
X233200000Y-212775000D01*
D89*
X238452620Y-224925000D02*
X238452620Y-224047380D01*
D88*
X236215000Y-224802620D02*
X236215000Y-223500000D01*
D89*
X240455000Y-234752620D02*
X244470240Y-234752620D01*
X244470240Y-234752620D02*
X245125000Y-235407380D01*
X242250000Y-243875120D02*
X242305120Y-243820000D01*
X246592620Y-235407380D02*
X245125000Y-235407380D01*
X243000000Y-237875000D02*
X243212620Y-237875000D01*
X242305120Y-243820000D02*
X242305120Y-238569880D01*
X242505120Y-246435000D02*
X242250000Y-246179880D01*
X244092620Y-235407380D02*
X245125000Y-235407380D01*
X247030000Y-234970000D02*
X246592620Y-235407380D01*
X243212620Y-237875000D02*
X243220000Y-237882380D01*
X243220000Y-236280000D02*
X244092620Y-235407380D01*
X243220000Y-237882380D02*
X243220000Y-236280000D01*
X242250000Y-246179880D02*
X242250000Y-243875120D01*
X242305120Y-238569880D02*
X243000000Y-237875000D01*
X247030000Y-232932380D02*
X247030000Y-234970000D01*
X241247380Y-237875000D02*
X243000000Y-237875000D01*
X247060120Y-246325000D02*
X244190120Y-246325000D01*
X244190120Y-246325000D02*
X244080120Y-246435000D01*
X247060120Y-243775000D02*
X244225120Y-243775000D01*
X244225120Y-243775000D02*
X244180120Y-243820000D01*
D86*
X135275000Y-199200000D02*
X138900000Y-183500000D01*
X178435050Y-253000000D02*
X175410050Y-249975000D01*
X201075000Y-260325000D02*
X201185000Y-262375000D01*
D87*
X209100000Y-139360500D02*
X207360500Y-139360500D01*
D85*
X200300000Y-271300000D02*
X199000000Y-270000000D01*
X202650000Y-266790000D02*
X202650000Y-270750000D01*
D86*
X200925000Y-258550000D02*
X201075000Y-260325000D01*
D85*
X201185000Y-265325000D02*
X202650000Y-266790000D01*
D86*
X160950000Y-249975000D02*
X147300000Y-239300000D01*
X180353873Y-253000000D02*
X178435050Y-253000000D01*
X147300000Y-239300000D02*
X138400000Y-219650000D01*
X183250000Y-255896127D02*
X180353873Y-253000000D01*
D87*
X207360500Y-139360500D02*
X207110000Y-139110000D01*
D85*
X199000000Y-270000000D02*
X198000000Y-270000000D01*
D86*
X138400000Y-219650000D02*
X135275000Y-199200000D01*
D85*
X202650000Y-270750000D02*
X202100000Y-271300000D01*
X202100000Y-271300000D02*
X200300000Y-271300000D01*
D86*
X175410050Y-249975000D02*
X160950000Y-249975000D01*
D87*
X225250000Y-148600000D02*
X225850000Y-148000000D01*
X227950000Y-145020000D02*
X227950000Y-146550000D01*
X250250000Y-166050000D02*
X249113604Y-166050000D01*
D86*
X181491414Y-256516414D02*
X160299565Y-250975000D01*
D87*
X206850000Y-151625000D02*
X210575000Y-151625000D01*
X212792380Y-149892380D02*
X212792380Y-149555000D01*
X236193604Y-153130000D02*
X235055000Y-153130000D01*
D86*
X136950000Y-220075000D02*
X133600000Y-199250000D01*
D87*
X206600000Y-148400000D02*
X206060000Y-147860000D01*
X212645000Y-149555000D02*
X212792380Y-149555000D01*
X225250000Y-148600000D02*
X224992620Y-148342620D01*
X235055000Y-153130000D02*
X234200000Y-152275000D01*
D86*
X194775000Y-259075000D02*
X197950000Y-259750000D01*
D87*
X206850000Y-151625000D02*
X206650000Y-151425000D01*
D86*
X197950000Y-259750000D02*
X198575000Y-260825000D01*
D87*
X206060000Y-147860000D02*
X206060000Y-146960000D01*
X230500000Y-139500000D02*
X231500000Y-139500000D01*
X191370000Y-156030000D02*
X195775000Y-151625000D01*
X231500000Y-139500000D02*
X232080393Y-140080393D01*
D86*
X133600000Y-199250000D02*
X136950000Y-182875000D01*
D87*
X210575000Y-151625000D02*
X212645000Y-149555000D01*
D86*
X159650000Y-250975000D02*
X146125000Y-240425000D01*
D87*
X232080393Y-140080393D02*
X232372949Y-140080393D01*
X158700000Y-172400000D02*
X157100000Y-170800000D01*
X195775000Y-151625000D02*
X206850000Y-151625000D01*
X148200000Y-168500000D02*
X147315148Y-168500000D01*
X225850000Y-148000000D02*
X226500000Y-148000000D01*
X229340000Y-141770000D02*
X229340000Y-140660000D01*
X229340000Y-140660000D02*
X230500000Y-139500000D01*
D86*
X160299565Y-250975000D02*
X159650000Y-250975000D01*
X182975000Y-258000000D02*
X181491414Y-256516414D01*
D87*
X213674647Y-150774647D02*
X212792380Y-149892380D01*
D86*
X146125000Y-240425000D02*
X136950000Y-220075000D01*
D87*
X147315148Y-168500000D02*
X146590000Y-167774852D01*
D86*
X198575000Y-260825000D02*
X198645000Y-262375000D01*
D87*
X227610000Y-144680000D02*
X227950000Y-145020000D01*
X228425000Y-147100000D02*
X228425000Y-147025000D01*
X224992620Y-148342620D02*
X223857500Y-148342620D01*
X152000000Y-170800000D02*
X149700000Y-168500000D01*
X226500000Y-148000000D02*
X227950000Y-146550000D01*
X228425000Y-147025000D02*
X227950000Y-146550000D01*
X148150000Y-169100000D02*
X148200000Y-168500000D01*
X206650000Y-151425000D02*
X206650000Y-151350000D01*
X215500000Y-150774647D02*
X213674647Y-150774647D01*
X249113604Y-166050000D02*
X236193604Y-153130000D01*
X149700000Y-168500000D02*
X148200000Y-168500000D01*
X157100000Y-170800000D02*
X152000000Y-170800000D01*
D86*
X182118962Y-256014915D02*
X160891744Y-250425000D01*
D87*
X146274705Y-168874705D02*
X145955000Y-168874705D01*
X235735000Y-151475000D02*
X235175000Y-151475000D01*
X230410000Y-142920000D02*
X231872949Y-141457051D01*
X250265000Y-164975000D02*
X242405000Y-157115000D01*
D86*
X134350000Y-199250000D02*
X137825000Y-183200000D01*
D87*
X148825000Y-169825000D02*
X147825000Y-169825000D01*
X250900000Y-164975000D02*
X250265000Y-164975000D01*
X213500000Y-145600000D02*
X213500000Y-146337380D01*
X189750000Y-155250000D02*
X194400000Y-150600000D01*
X207510000Y-145910000D02*
X207110000Y-145910000D01*
X157200000Y-172600000D02*
X151600000Y-172600000D01*
D86*
X183334242Y-257230195D02*
X182118962Y-256014915D01*
D87*
X147825000Y-169825000D02*
X147300000Y-169300000D01*
X212792380Y-148107620D02*
X212792380Y-147045000D01*
X241375000Y-157115000D02*
X235735000Y-151475000D01*
X189250000Y-155250000D02*
X189750000Y-155250000D01*
X224907380Y-147842620D02*
X225250000Y-147500000D01*
X231872949Y-141457051D02*
X231872949Y-140946418D01*
D86*
X199300000Y-258875000D02*
X199915000Y-262375000D01*
X137625000Y-219850000D02*
X134350000Y-199250000D01*
D87*
X213500000Y-146337380D02*
X212792380Y-147045000D01*
X147880378Y-170500000D02*
X147880378Y-169880378D01*
X209200000Y-147600000D02*
X207510000Y-145910000D01*
X242405000Y-157115000D02*
X241375000Y-157115000D01*
D86*
X146675000Y-239900000D02*
X137625000Y-219850000D01*
D87*
X210300000Y-150600000D02*
X212792380Y-148107620D01*
X223857500Y-147842620D02*
X224907380Y-147842620D01*
D86*
X159975000Y-250425000D02*
X146675000Y-239900000D01*
X160891744Y-250425000D02*
X159975000Y-250425000D01*
D87*
X147300000Y-169300000D02*
X146700000Y-169300000D01*
X151600000Y-172600000D02*
X148825000Y-169825000D01*
X146700000Y-169300000D02*
X146274705Y-168874705D01*
X147880378Y-169880378D02*
X147825000Y-169825000D01*
X194400000Y-150600000D02*
X210300000Y-150600000D01*
D86*
X218000000Y-149500000D02*
X223250000Y-154750000D01*
X207110000Y-139960000D02*
X210310000Y-139960000D01*
D87*
X252945443Y-168150000D02*
X250300000Y-168150000D01*
D86*
X216170000Y-146320000D02*
X218000000Y-148150000D01*
D87*
X250300000Y-168150000D02*
X237350000Y-155200000D01*
D86*
X223250000Y-154750000D02*
X230150000Y-154750000D01*
X210310000Y-139960000D02*
X215320000Y-144970000D01*
D87*
X253420000Y-167675443D02*
X252945443Y-168150000D01*
D86*
X218000000Y-148150000D02*
X218000000Y-149500000D01*
D87*
X237350000Y-155200000D02*
X236100000Y-155200000D01*
D86*
X230150000Y-154750000D02*
X233000000Y-157600000D01*
D87*
X196888604Y-149150000D02*
X197850000Y-149150000D01*
X137750000Y-165650000D02*
X140100000Y-163300000D01*
X185116852Y-152400000D02*
X188660000Y-152400000D01*
X149250000Y-171800000D02*
X147145443Y-171800000D01*
X195938604Y-150100000D02*
X196888604Y-149150000D01*
X193000000Y-150500000D02*
X193400000Y-150100000D01*
X169100000Y-153200000D02*
X170800000Y-151500000D01*
X170800000Y-151500000D02*
X184216852Y-151500000D01*
X184216852Y-151500000D02*
X185116852Y-152400000D01*
X142570443Y-168300000D02*
X139400000Y-168300000D01*
X210175000Y-149825000D02*
X212000000Y-148000000D01*
X198525000Y-149825000D02*
X210175000Y-149825000D01*
X188660000Y-152400000D02*
X191300000Y-149760000D01*
X147145443Y-171800000D02*
X145320000Y-169974557D01*
X140100000Y-163300000D02*
X140700000Y-163300000D01*
X212000000Y-144200000D02*
X208610000Y-140810000D01*
X197850000Y-149150000D02*
X198525000Y-149825000D01*
X139400000Y-168300000D02*
X138500000Y-167400000D01*
X138500000Y-167400000D02*
X138200000Y-167400000D01*
X193400000Y-150100000D02*
X195938604Y-150100000D01*
X208610000Y-140810000D02*
X207110000Y-140810000D01*
X168500000Y-153200000D02*
X169100000Y-153200000D01*
X138200000Y-167400000D02*
X137750000Y-166950000D01*
X212000000Y-148000000D02*
X212000000Y-144200000D01*
X137750000Y-166950000D02*
X137750000Y-165650000D01*
D88*
X227632620Y-248867380D02*
X218365000Y-247667380D01*
X239822380Y-238000000D02*
X239947380Y-237875000D01*
X227632620Y-248867380D02*
X238500000Y-238000000D01*
X238500000Y-238000000D02*
X239822380Y-238000000D01*
D87*
X194147380Y-246370000D02*
X199420000Y-246370000D01*
X194092380Y-246425000D02*
X194147380Y-246370000D01*
X200670000Y-244600000D02*
X200580000Y-244690000D01*
X203572620Y-244600000D02*
X200670000Y-244600000D01*
X204215000Y-243957620D02*
X203572620Y-244600000D01*
D89*
X231000000Y-137500000D02*
X231000000Y-137000000D01*
X231500000Y-138500000D02*
X231500000Y-138000000D01*
X230657380Y-136657380D02*
X229025000Y-136657380D01*
X231000000Y-137000000D02*
X230657380Y-136657380D01*
X232872949Y-139214367D02*
X231500000Y-138500000D01*
X231500000Y-138000000D02*
X231000000Y-137500000D01*
D87*
X170225000Y-173075000D02*
X170225000Y-173689823D01*
D85*
X187448952Y-162624925D02*
X186675075Y-162624925D01*
D89*
X237375075Y-187448952D02*
X237375075Y-186775075D01*
D87*
X226092240Y-170442937D02*
X226092240Y-170692240D01*
D89*
X178225000Y-138345120D02*
X177845120Y-138345120D01*
X178225000Y-138345120D02*
X178225000Y-137025000D01*
D87*
X229557063Y-226092240D02*
X228907760Y-226092240D01*
X192181989Y-238643288D02*
X192181989Y-239018011D01*
D89*
X177845120Y-138345120D02*
X177000000Y-137500000D01*
D87*
X226092240Y-170692240D02*
X226800000Y-171400000D01*
D89*
X179500000Y-146000000D02*
X178250000Y-146000000D01*
D87*
X161356712Y-192181989D02*
X161981989Y-192181989D01*
D89*
X237375075Y-186775075D02*
X236900000Y-186300000D01*
X238643288Y-207818011D02*
X238218011Y-207818011D01*
D87*
X212551048Y-237375075D02*
X212551048Y-237148952D01*
X192181989Y-239018011D02*
X191800000Y-239400000D01*
D89*
X178225000Y-142295120D02*
X178275000Y-142345120D01*
D87*
X173000000Y-228750000D02*
X173100697Y-228750000D01*
X228907760Y-226092240D02*
X228300000Y-226700000D01*
D89*
X178225000Y-138345120D02*
X178225000Y-142295120D01*
X238218011Y-207818011D02*
X237900000Y-207500000D01*
D87*
X163248952Y-212551048D02*
X163400000Y-212400000D01*
D89*
X177500000Y-146000000D02*
X177250000Y-145750000D01*
X178225000Y-137025000D02*
X178250000Y-137000000D01*
D87*
X161981989Y-192181989D02*
X162100000Y-192300000D01*
X212551048Y-237148952D02*
X213100000Y-236600000D01*
X208410000Y-160764723D02*
X207818011Y-161356712D01*
D89*
X178275000Y-145975000D02*
X178250000Y-146000000D01*
D87*
X162624925Y-212551048D02*
X163248952Y-212551048D01*
D89*
X178225000Y-138345120D02*
X178654880Y-138345120D01*
D85*
X186675075Y-162624925D02*
X186300000Y-163000000D01*
D89*
X178250000Y-146000000D02*
X177500000Y-146000000D01*
X178654880Y-138345120D02*
X179500000Y-137500000D01*
D87*
X173100697Y-228750000D02*
X173907760Y-229557063D01*
X170225000Y-173689823D02*
X170442937Y-173907760D01*
D89*
X178275000Y-142345120D02*
X178275000Y-145975000D01*
D87*
X224697380Y-150580000D02*
X224742380Y-150535000D01*
X224742380Y-149992380D02*
X224742380Y-150535000D01*
X224697380Y-152675000D02*
X224697380Y-150580000D01*
X223755120Y-149005120D02*
X224742380Y-149992380D01*
X223695000Y-149005120D02*
X223755120Y-149005120D01*
D89*
X175525000Y-144414880D02*
X173412740Y-144414880D01*
D87*
X170925000Y-145175000D02*
X170057380Y-145175000D01*
D89*
X177275000Y-144170120D02*
X177325000Y-144220120D01*
D87*
X173125000Y-144702620D02*
X171397380Y-144702620D01*
X171397380Y-144702620D02*
X170925000Y-145175000D01*
D89*
X177325000Y-144220120D02*
X175719760Y-144220120D01*
X177275000Y-140220120D02*
X177275000Y-144170120D01*
X175719760Y-144220120D02*
X175525000Y-144414880D01*
X173412740Y-144414880D02*
X173125000Y-144702620D01*
X175500000Y-144389880D02*
X175525000Y-144414880D01*
X179175000Y-140220120D02*
X179175000Y-144170120D01*
X180279880Y-141325000D02*
X179175000Y-140220120D01*
X179175000Y-144170120D02*
X179225000Y-144220120D01*
X182164880Y-141325000D02*
X180279880Y-141325000D01*
D90*
X244455496Y-241829009D02*
X243242620Y-243041885D01*
X243242620Y-243041885D02*
X243242620Y-244598256D01*
D89*
X247560120Y-245000000D02*
X248885120Y-246325000D01*
X244490000Y-237882380D02*
X244490000Y-241829009D01*
X243819365Y-245175000D02*
X244576941Y-245175000D01*
D90*
X244490000Y-241829009D02*
X244455496Y-241829009D01*
X243242620Y-244598256D02*
X243819365Y-245175000D01*
D89*
X244576941Y-245175000D02*
X244751941Y-245000000D01*
X244751941Y-245000000D02*
X247560120Y-245000000D01*
X245760000Y-240649880D02*
X245760000Y-237882380D01*
X248885120Y-243775000D02*
X245760000Y-240649880D01*
D87*
X244490000Y-232932380D02*
X244490000Y-230179880D01*
X244490000Y-230179880D02*
X244485120Y-230175000D01*
D89*
X239750000Y-226222620D02*
X239750000Y-227527380D01*
X239750000Y-227527380D02*
X239972620Y-227750000D01*
X240097620Y-225875000D02*
X239750000Y-226222620D01*
X241152620Y-225875000D02*
X240097620Y-225875000D01*
X239972620Y-227750000D02*
X245635120Y-227750000D01*
X245635120Y-227750000D02*
X246110120Y-227275000D01*
X242432620Y-226825000D02*
X241152620Y-226825000D01*
X244672500Y-224585120D02*
X242432620Y-226825000D01*
X247125000Y-224585120D02*
X244672500Y-224585120D01*
X245489880Y-221125000D02*
X247125000Y-222760120D01*
X241147380Y-221125000D02*
X245489880Y-221125000D01*
D87*
X185800000Y-142100000D02*
X185400000Y-141700000D01*
X200440000Y-145000000D02*
X201140000Y-144300000D01*
X195324500Y-142100000D02*
X195324500Y-142924500D01*
X185400000Y-141700000D02*
X184364880Y-141700000D01*
X205950000Y-144300000D02*
X206710000Y-145060000D01*
X197400000Y-145000000D02*
X200440000Y-145000000D01*
X206710000Y-145060000D02*
X207110000Y-145060000D01*
X184364880Y-141700000D02*
X183989880Y-141325000D01*
X201140000Y-144300000D02*
X205950000Y-144300000D01*
X195324500Y-142924500D02*
X197400000Y-145000000D01*
D86*
X213400000Y-253450000D02*
X217650000Y-251400000D01*
X203950000Y-255275000D02*
X213400000Y-253450000D01*
X228353931Y-251250000D02*
X224683931Y-254920000D01*
X229250000Y-251250000D02*
X228353931Y-251250000D01*
X224683931Y-254920000D02*
X212450000Y-254920000D01*
X238880000Y-235990000D02*
X238280000Y-235990000D01*
X238280000Y-235990000D02*
X226800000Y-247470000D01*
X254270000Y-219750000D02*
X252290000Y-217770000D01*
X250100000Y-232000000D02*
X254270000Y-227830000D01*
X250100000Y-232100000D02*
X250100000Y-232000000D01*
X252290000Y-217770000D02*
X252290000Y-212900000D01*
X254270000Y-227830000D02*
X254270000Y-219750000D01*
X255200000Y-199000000D02*
X255200000Y-214000000D01*
X255200000Y-214000000D02*
X255450000Y-214250000D01*
X257170000Y-201190000D02*
X256000000Y-200020000D01*
X257400000Y-195875735D02*
X257400000Y-188880000D01*
X256000000Y-197275735D02*
X257400000Y-195875735D01*
X257400000Y-188880000D02*
X252390000Y-183870000D01*
X256000000Y-200020000D02*
X256000000Y-197275735D01*
X237230000Y-161060000D02*
X244680000Y-168120000D01*
X226610000Y-151910000D02*
X229160000Y-151910000D01*
X239860000Y-162610000D02*
X241360000Y-162610000D01*
X229160000Y-151910000D02*
X239860000Y-162610000D01*
D87*
X201700000Y-146000000D02*
X202560000Y-145140000D01*
X198800000Y-146000000D02*
X201700000Y-146000000D01*
X205690000Y-145140000D02*
X205750000Y-145200000D01*
X202560000Y-145140000D02*
X205690000Y-145140000D01*
D86*
X144675000Y-203525000D02*
X147525000Y-216475000D01*
X144875000Y-213650000D02*
X149700000Y-224150000D01*
X149700000Y-224150000D02*
X153325000Y-228375000D01*
X159710000Y-239490000D02*
X173820000Y-248060000D01*
X211340000Y-266420000D02*
X210900000Y-265980000D01*
X207175000Y-257625000D02*
X209625000Y-257625000D01*
X210900000Y-265980000D02*
X210900000Y-261597549D01*
X209625000Y-257625000D02*
X211375000Y-259375000D01*
X210900000Y-261597549D02*
X210997549Y-261500000D01*
X265060000Y-223060000D02*
X265060000Y-228210000D01*
X265690000Y-222430000D02*
X265060000Y-223060000D01*
X268610000Y-208650000D02*
X268610000Y-219510000D01*
X268610000Y-219510000D02*
X265690000Y-222430000D01*
D87*
X255600000Y-174600000D02*
X266000000Y-174600000D01*
X254862500Y-173862500D02*
X255600000Y-174600000D01*
X252500000Y-158900000D02*
X253800000Y-157600000D01*
X252500000Y-160600000D02*
X252500000Y-158900000D01*
X215157677Y-133157677D02*
X215157677Y-132557677D01*
X213775000Y-131175000D02*
X213775000Y-130800500D01*
X215730000Y-133730000D02*
X215157677Y-133157677D01*
X215157677Y-132557677D02*
X213775000Y-131175000D01*
X215780000Y-133730000D02*
X215730000Y-133730000D01*
X213000000Y-132400000D02*
X213000000Y-129800000D01*
X213800000Y-133200000D02*
X213000000Y-132400000D01*
X147275000Y-161075000D02*
X146300000Y-160100000D01*
X146300000Y-160100000D02*
X146300000Y-158800000D01*
X146300000Y-158800000D02*
X144100000Y-155300000D01*
D86*
X134250000Y-175250000D02*
X132000000Y-177500000D01*
X134250000Y-171500000D02*
X134250000Y-175250000D01*
D87*
X212842521Y-240000000D02*
X213405151Y-240562630D01*
X211100000Y-240200000D02*
X211300000Y-240000000D01*
X196575000Y-240200000D02*
X211100000Y-240200000D01*
X191150000Y-245625000D02*
X196575000Y-240200000D01*
X184200000Y-267300000D02*
X184200000Y-248200000D01*
X184200000Y-248200000D02*
X186775000Y-245625000D01*
X186300000Y-269400000D02*
X184200000Y-267300000D01*
X211300000Y-240000000D02*
X212842521Y-240000000D01*
X186775000Y-245625000D02*
X191150000Y-245625000D01*
X226649303Y-229000000D02*
X226092240Y-229557063D01*
X229500000Y-229000000D02*
X226649303Y-229000000D01*
X236300000Y-181700000D02*
X239100000Y-187000000D01*
X239100000Y-187000000D02*
X238643288Y-192181989D01*
X228425693Y-168109484D02*
X236300000Y-181700000D01*
X218204510Y-165200000D02*
X221000000Y-165200000D01*
X212691151Y-160441151D02*
X213445661Y-160441151D01*
X229800000Y-171500000D02*
X229557063Y-173907760D01*
X213445661Y-160441151D02*
X218204510Y-165200000D01*
X208672114Y-158169157D02*
X210419157Y-158169157D01*
X210419157Y-158169157D02*
X212691151Y-160441151D01*
X221000000Y-165200000D02*
X229800000Y-171500000D01*
X211252311Y-162077311D02*
X212003434Y-162077311D01*
X197800000Y-159900000D02*
X209075000Y-159900000D01*
X189000000Y-160400000D02*
X197200000Y-159300000D01*
X197200000Y-159300000D02*
X197800000Y-159900000D01*
X209075000Y-159900000D02*
X211252311Y-162077311D01*
X186594849Y-159437370D02*
X189000000Y-160400000D01*
X212003434Y-162077311D02*
X212551048Y-162624925D01*
X158169157Y-191327886D02*
X158169157Y-190005843D01*
X169210000Y-172890000D02*
X169700000Y-172400000D01*
X169700000Y-172400000D02*
X173907760Y-170442937D01*
X169210000Y-178965000D02*
X169210000Y-172890000D01*
X158169157Y-190005843D02*
X169210000Y-178965000D01*
X159437370Y-213405151D02*
X159600000Y-191400000D01*
X159600000Y-191400000D02*
X162624925Y-187448952D01*
X161000000Y-213200000D02*
X161356712Y-207818011D01*
X167100000Y-223300000D02*
X161000000Y-213200000D01*
X171574307Y-231890516D02*
X167100000Y-223300000D01*
X191327886Y-241830843D02*
X171100000Y-229500000D01*
X171100000Y-229500000D02*
X170442937Y-226092240D01*
X167592620Y-163375000D02*
X167700000Y-163375000D01*
X168557380Y-169242620D02*
X168109484Y-169690516D01*
X168109484Y-169690516D02*
X168109484Y-171574307D01*
X168557380Y-164232380D02*
X168557380Y-169242620D01*
X167700000Y-163375000D02*
X168557380Y-164232380D01*
X186675000Y-135025000D02*
X183850000Y-132200000D01*
X215120000Y-130920000D02*
X215882677Y-131682677D01*
X215882677Y-131682677D02*
X215882677Y-132399500D01*
X189500000Y-139300000D02*
X186675000Y-136475000D01*
X215120000Y-130770000D02*
X215120000Y-130920000D01*
X186675000Y-136475000D02*
X186675000Y-135025000D01*
X157350000Y-176400000D02*
X159550000Y-174200000D01*
X151425000Y-152600000D02*
X149925000Y-151100000D01*
X159550000Y-174200000D02*
X159550000Y-171600000D01*
X159550000Y-171600000D02*
X152325000Y-164375000D01*
X152325000Y-164375000D02*
X152325000Y-160000000D01*
X151425000Y-156925000D02*
X151425000Y-152600000D01*
X130950000Y-178510000D02*
X132740000Y-178510000D01*
X134850000Y-176400000D02*
X157350000Y-176400000D01*
X132740000Y-178510000D02*
X134850000Y-176400000D01*
X191925000Y-266250000D02*
X187975000Y-270200000D01*
D86*
X193925000Y-262000000D02*
X193925000Y-258100000D01*
X198800000Y-257500000D02*
X199675000Y-257550000D01*
X201775000Y-258500000D02*
X201725000Y-260425000D01*
D87*
X191925000Y-264575000D02*
X191925000Y-266250000D01*
X216500000Y-265850000D02*
X216500000Y-268900000D01*
X183725000Y-268425000D02*
X182550000Y-268425000D01*
X187975000Y-270200000D02*
X185500000Y-270200000D01*
D86*
X199675000Y-257550000D02*
X200025000Y-257900000D01*
D87*
X185500000Y-270200000D02*
X183725000Y-268425000D01*
D86*
X201194239Y-257900000D02*
X201775000Y-258480761D01*
X201775000Y-258480761D02*
X201775000Y-258500000D01*
D87*
X211400000Y-260750000D02*
X216500000Y-265850000D01*
D86*
X205550000Y-260425000D02*
X211400000Y-260750000D01*
X195225000Y-257525000D02*
X198800000Y-257500000D01*
X193925000Y-258100000D02*
X195225000Y-257525000D01*
X201725000Y-260425000D02*
X205550000Y-260425000D01*
X200025000Y-257900000D02*
X201194239Y-257900000D01*
X239275000Y-185100000D02*
X235975000Y-179325000D01*
X201167145Y-158730000D02*
X201500000Y-159062855D01*
X195640000Y-158730000D02*
X201167145Y-158730000D01*
D87*
X163325000Y-183410000D02*
X163325000Y-181775000D01*
X161575000Y-185160000D02*
X163325000Y-183410000D01*
D86*
X162750000Y-225417894D02*
X155120000Y-217787894D01*
X155120000Y-217787894D02*
X155120000Y-207510000D01*
X162750000Y-225750000D02*
X162750000Y-225417894D01*
X165330000Y-229130000D02*
X169350000Y-233150000D01*
X171208629Y-235740000D02*
X172270000Y-235740000D01*
X162660000Y-222650000D02*
X164020000Y-226810000D01*
X169350000Y-233150000D02*
X169350000Y-233881371D01*
X165330000Y-228510000D02*
X165330000Y-229130000D01*
X164020000Y-226810000D02*
X165330000Y-228510000D01*
X169350000Y-233881371D02*
X171208629Y-235740000D01*
X178440000Y-236340000D02*
X183850000Y-241750000D01*
X174430000Y-236340000D02*
X178440000Y-236340000D01*
X183850000Y-241750000D02*
X187330000Y-241750000D01*
D87*
X162600000Y-166900000D02*
X162600000Y-174700000D01*
X162500000Y-159400000D02*
X162500000Y-166800000D01*
X165692620Y-157225000D02*
X164675000Y-157225000D01*
X164900000Y-177000000D02*
X165500000Y-177000000D01*
X162600000Y-174700000D02*
X164900000Y-177000000D01*
X162500000Y-166800000D02*
X162600000Y-166900000D01*
X164675000Y-157225000D02*
X162500000Y-159400000D01*
X171800000Y-163700000D02*
X172800000Y-162700000D01*
X169817620Y-163700000D02*
X171800000Y-163700000D01*
X175600000Y-153400000D02*
X178400000Y-153400000D01*
X199224500Y-143775500D02*
X206275500Y-143775500D01*
X198950000Y-144050000D02*
X199224500Y-143775500D01*
X172800000Y-156200000D02*
X175600000Y-153400000D01*
X169492620Y-163375000D02*
X169817620Y-163700000D01*
X206710000Y-144210000D02*
X207110000Y-144210000D01*
X172800000Y-162700000D02*
X172800000Y-156200000D01*
X206275500Y-143775500D02*
X206710000Y-144210000D01*
X173654595Y-152300000D02*
X168629595Y-157325000D01*
X207585500Y-142510000D02*
X207110000Y-142510000D01*
X168629595Y-157325000D02*
X167692620Y-157325000D01*
X192400000Y-148900000D02*
X192400000Y-149705000D01*
X183700000Y-152300000D02*
X173654595Y-152300000D01*
X189005000Y-153100000D02*
X184500000Y-153100000D01*
X209875500Y-145600000D02*
X209875500Y-144800000D01*
X192800000Y-148500000D02*
X192400000Y-148900000D01*
X204600000Y-149100000D02*
X204000000Y-148500000D01*
X184500000Y-153100000D02*
X183700000Y-152300000D01*
X204000000Y-148500000D02*
X192800000Y-148500000D01*
X209875500Y-144800000D02*
X207585500Y-142510000D01*
X167692620Y-157325000D02*
X167592620Y-157225000D01*
X192400000Y-149705000D02*
X189005000Y-153100000D01*
D86*
X211300000Y-147700000D02*
X209950000Y-149050000D01*
X205210000Y-148410000D02*
X205210000Y-146960000D01*
X209950000Y-149050000D02*
X205850000Y-149050000D01*
X211300000Y-146099500D02*
X211300000Y-147700000D01*
X222195000Y-149405000D02*
X221500000Y-150100000D01*
X222195000Y-149005120D02*
X222195000Y-149405000D01*
X205850000Y-149050000D02*
X205210000Y-148410000D01*
X223290000Y-145450000D02*
X222695000Y-146045000D01*
X222695000Y-146259612D02*
X222695000Y-146620120D01*
X204360000Y-146060000D02*
X204360000Y-146960000D01*
X222695000Y-146045000D02*
X222695000Y-146248902D01*
D87*
X207312500Y-259575000D02*
X207812500Y-260075000D01*
X201725000Y-154500000D02*
X203867500Y-156642500D01*
X207812500Y-260075000D02*
X220875000Y-260075000D01*
X228170000Y-160620000D02*
X236225000Y-168675000D01*
X203050000Y-259575000D02*
X207312500Y-259575000D01*
X190977500Y-260160500D02*
X190977500Y-258842620D01*
X194200000Y-144900000D02*
X194200000Y-139550000D01*
X226000000Y-160620000D02*
X228170000Y-160620000D01*
X194200000Y-139550000D02*
X193760000Y-139110000D01*
X236225000Y-168675000D02*
X243800000Y-168675000D01*
X193760000Y-139110000D02*
X193110000Y-139110000D01*
X190888000Y-260250000D02*
X190977500Y-260160500D01*
X200250000Y-154500000D02*
X201725000Y-154500000D01*
X220875000Y-260075000D02*
X221600000Y-259350000D01*
X194658411Y-145358411D02*
X194200000Y-144900000D01*
D85*
X231750000Y-158750000D02*
X231000000Y-158000000D01*
D87*
X246170000Y-155470000D02*
X246095000Y-155470000D01*
X246095000Y-155470000D02*
X244500000Y-153875000D01*
D85*
X231000000Y-156835786D02*
X229664214Y-155500000D01*
D86*
X244500000Y-153875000D02*
X243892620Y-153875000D01*
D85*
X229664214Y-155500000D02*
X222000000Y-155500000D01*
X209108411Y-146408411D02*
X209108411Y-144908411D01*
X231000000Y-158000000D02*
X231000000Y-156835786D01*
X234750000Y-158750000D02*
X231750000Y-158750000D01*
X222000000Y-155500000D02*
X220250000Y-153750000D01*
X207560000Y-143360000D02*
X207110000Y-143360000D01*
X209108411Y-144908411D02*
X207560000Y-143360000D01*
D89*
X241147380Y-224919760D02*
X241152620Y-224925000D01*
X241147380Y-223025000D02*
X241147380Y-224919760D01*
D87*
X193760000Y-138260000D02*
X193110000Y-138260000D01*
X194839502Y-146060498D02*
X195400000Y-145500000D01*
X195400000Y-145500000D02*
X195400000Y-144066116D01*
X194700000Y-139200000D02*
X193760000Y-138260000D01*
X194700000Y-143366116D02*
X194700000Y-139200000D01*
X194200000Y-146060498D02*
X194839502Y-146060498D01*
X195400000Y-144066116D02*
X194700000Y-143366116D01*
D86*
X169600000Y-147000000D02*
X169600000Y-146932380D01*
X208600000Y-138500000D02*
X207510000Y-137410000D01*
X169600000Y-146932380D02*
X170057380Y-146475000D01*
X207510000Y-137410000D02*
X207110000Y-137410000D01*
D87*
X191975000Y-138175000D02*
X191250000Y-138900000D01*
X204673056Y-137173056D02*
X205760000Y-138260000D01*
X191250000Y-138900000D02*
X191250000Y-148050000D01*
X188269880Y-148475000D02*
X188269880Y-150425000D01*
X189200000Y-150100000D02*
X188594880Y-150100000D01*
X188594880Y-150100000D02*
X188269880Y-150425000D01*
X191250000Y-148050000D02*
X189200000Y-150100000D01*
X205760000Y-138260000D02*
X207110000Y-138260000D01*
X210500000Y-147200000D02*
X210500000Y-143810000D01*
X209730000Y-147970000D02*
X210500000Y-147200000D01*
D86*
X243600000Y-182900000D02*
X251107380Y-190407380D01*
D87*
X210500000Y-143810000D02*
X208350000Y-141660000D01*
D86*
X239800000Y-176450000D02*
X243600000Y-182900000D01*
D87*
X211900000Y-153175000D02*
X211900000Y-151600000D01*
D86*
X251107380Y-190407380D02*
X251107380Y-192275000D01*
D87*
X208350000Y-141660000D02*
X207110000Y-141660000D01*
X213924268Y-158000000D02*
X213924268Y-155199268D01*
X213924268Y-155199268D02*
X211900000Y-153175000D01*
X209730000Y-148370000D02*
X209730000Y-147970000D01*
X243175000Y-154550000D02*
X244090000Y-154550000D01*
X247165000Y-156375000D02*
X249142500Y-154397500D01*
X244890000Y-155350000D02*
X244890000Y-155850000D01*
X244090000Y-154550000D02*
X244890000Y-155350000D01*
X249142500Y-154082500D02*
X252125000Y-151100000D01*
X241992620Y-153875000D02*
X242492620Y-154375000D01*
X244890000Y-155850000D02*
X245415000Y-156375000D01*
X245415000Y-156375000D02*
X247165000Y-156375000D01*
X249142500Y-154397500D02*
X249142500Y-154082500D01*
X242492620Y-154375000D02*
X243000000Y-154375000D01*
X243000000Y-154375000D02*
X243175000Y-154550000D01*
G04 #@! TA.AperFunction,Conductor*
G36*
X176413000Y-139766613D02*
G01*
X176458387Y-139812000D01*
X176475000Y-139874000D01*
X176475000Y-139970120D01*
X177401000Y-139970120D01*
X177463000Y-139986733D01*
X177508387Y-140032120D01*
X177525000Y-140094120D01*
X177525000Y-141454915D01*
X177527492Y-141454719D01*
X177591405Y-141436151D01*
X177648278Y-141433245D01*
X177700452Y-141456066D01*
X177736923Y-141499802D01*
X177750000Y-141555227D01*
X177750000Y-142870486D01*
X177736924Y-142925911D01*
X177700453Y-142969646D01*
X177648279Y-142992468D01*
X177591407Y-142989563D01*
X177577491Y-142985520D01*
X177575000Y-142985324D01*
X177575000Y-144346120D01*
X177558387Y-144408120D01*
X177513000Y-144453507D01*
X177451000Y-144470120D01*
X176765000Y-144470120D01*
X176765000Y-144540880D01*
X176748387Y-144602880D01*
X176703000Y-144648267D01*
X176641000Y-144664880D01*
X174325001Y-144664880D01*
X174310769Y-144679111D01*
X174308388Y-144688000D01*
X174263001Y-144733387D01*
X174201001Y-144750000D01*
X173124000Y-144750000D01*
X173062000Y-144733387D01*
X173016613Y-144688000D01*
X173000000Y-144626000D01*
X173000000Y-144164880D01*
X174325000Y-144164880D01*
X175275000Y-144164880D01*
X175775000Y-144164880D01*
X176485000Y-144164880D01*
X176485000Y-144094120D01*
X176501613Y-144032120D01*
X176547000Y-143986733D01*
X176609000Y-143970120D01*
X177075000Y-143970120D01*
X177075000Y-142985325D01*
X177074999Y-142985324D01*
X177072511Y-142985520D01*
X176914799Y-143031339D01*
X176773442Y-143114937D01*
X176657317Y-143231062D01*
X176573717Y-143372422D01*
X176553141Y-143443245D01*
X176525389Y-143492529D01*
X176478637Y-143524361D01*
X176422611Y-143532119D01*
X176368968Y-143514188D01*
X176294120Y-143468021D01*
X176127696Y-143412873D01*
X176024979Y-143402380D01*
X175775000Y-143402380D01*
X175775000Y-144164880D01*
X175275000Y-144164880D01*
X175275000Y-143402381D01*
X175025021Y-143402381D01*
X174922304Y-143412873D01*
X174755877Y-143468022D01*
X174606654Y-143560063D01*
X174482683Y-143684034D01*
X174390642Y-143833257D01*
X174335493Y-143999683D01*
X174325000Y-144102401D01*
X174325000Y-144164880D01*
X173000000Y-144164880D01*
X173000000Y-144033766D01*
X173017120Y-143970896D01*
X174573352Y-141325302D01*
X175076400Y-140470120D01*
X176475000Y-140470120D01*
X176475000Y-140873259D01*
X176477900Y-140910113D01*
X176523717Y-141067817D01*
X176607317Y-141209177D01*
X176723442Y-141325302D01*
X176864799Y-141408900D01*
X177022511Y-141454719D01*
X177024999Y-141454915D01*
X177025000Y-141454915D01*
X177025000Y-140470120D01*
X176475000Y-140470120D01*
X175076400Y-140470120D01*
X175464041Y-139811129D01*
X175509358Y-139766362D01*
X175570921Y-139750000D01*
X176351000Y-139750000D01*
X176413000Y-139766613D01*
G37*
G04 #@! TD.AperFunction*
M02*
