M48
; DRILL file {KiCad 7.0.1-3b83917a11~171~ubuntu22.04.1} date Wed 05 Apr 2023 03:14:05 PM PDT
; FORMAT={-:-/ absolute / metric / decimal}
; #@! TF.CreationDate,2023-04-05T15:14:05-07:00
; #@! TF.GenerationSoftware,Kicad,Pcbnew,7.0.1-3b83917a11~171~ubuntu22.04.1
; #@! TF.FileFunction,NonPlated,1,4,NPTH
FMAT,2
METRIC
; #@! TA.AperFunction,NonPlated,NPTH,ComponentDrill
T1C0.500
; #@! TA.AperFunction,NonPlated,NPTH,ComponentDrill
T2C3.900
%
G90
G05
T1
X143.05Y-170.763
X143.55Y-169.897
X144.05Y-169.031
X144.55Y-168.165
X145.05Y-167.299
X145.55Y-166.433
X146.05Y-165.567
X197.1Y-263.8
X198.1Y-263.8
X199.1Y-263.8
X200.1Y-263.8
X201.1Y-263.8
X202.1Y-263.8
X203.1Y-263.8
X253.85Y-165.437
X254.35Y-166.303
X254.85Y-167.169
X255.35Y-168.035
X255.85Y-168.901
X256.35Y-169.767
X256.85Y-170.633
T2
X176.0Y-158.431
X176.0Y-241.569
X248.0Y-200.0
T0
M30
